<svg width="650" height="277" viewBox="0 0 650 277" fill="none" xmlns="http://www.w3.org/2000/svg">
<path d="M325 274C504.493 274 650 271.538 650 268.5C650 265.463 504.493 263 325 263C145.507 263 0 265.463 0 268.5C0 271.538 145.507 274 325 274Z" fill="#777777"/>
<path d="M534.163 63.2883C534.163 63.2883 517.295 114.048 541.129 125.912C564.964 137.776 564.15 95.3073 564.15 95.3073L546.262 62.6873L534.163 63.2883Z" fill="#2D386B"/>
<path d="M540.361 232.554C540.361 232.554 582.592 222.648 587.515 190.725C593.571 151.455 582.841 132.214 582.841 132.214L555.251 165.142L546.971 204.933L536.06 212.827L529.988 225.693L540.362 232.554H540.361Z" fill="#EF866A"/>
<path d="M517.755 210.651C517.853 209.095 519.233 207.889 520.898 207.909C527.478 207.988 542.237 207.36 542.222 208.56C542.203 210.091 537.759 224.22 537.759 224.22C537.759 224.22 546.87 224.77 545.156 231.094C543.84 235.947 537.973 241.516 535.314 243.845C534.47 244.584 533.877 245.528 533.601 246.58C532.412 251.101 528.537 263.53 521.843 263.626C513.659 263.744 514.634 260.474 514.653 258.943C514.669 257.628 517.088 221.262 517.756 210.652L517.755 210.651Z" fill="#342E37"/>
<path d="M569.435 165.142C569.435 165.142 567.016 241.638 563.773 249.729C560.53 257.82 542.806 249.729 542.806 249.729L538.619 166.84L569.435 165.142Z" fill="#F79674"/>
<path d="M588.446 116.575C588.446 116.575 591.535 133.341 591.535 145.842C591.535 158.343 593.059 172.064 591.535 173.283C590.01 174.503 574.877 178.597 556.583 177.682C538.289 176.767 532.801 172.664 533.106 171.209C533.411 169.754 535.545 168.528 535.545 168.528C535.545 168.528 536.026 116.556 542.863 108.152C553.73 94.7942 564.88 110.93 564.88 110.93H587.246L588.446 116.573V116.575Z" fill="#0A84FF"/>
<path d="M545.37 269.455C543.811 269.44 542.534 268.126 542.465 266.462C542.194 259.887 540.781 245.183 541.98 245.134C543.51 245.071 558.25 248.573 558.25 248.573C558.25 248.573 558.314 239.445 564.72 240.821C569.636 241.877 575.509 247.439 577.976 249.97C578.759 250.774 579.733 251.316 580.798 251.536C585.376 252.482 597.993 255.69 598.446 262.37C598.999 270.536 595.682 269.736 594.152 269.799C592.839 269.853 556.001 269.557 545.37 269.455Z" fill="#342E37"/>
<path d="M535.546 168.874C535.39 168.874 535.248 168.768 535.211 168.609C535.166 168.424 535.28 168.238 535.466 168.194L538.324 167.51C538.507 167.463 538.696 167.58 538.739 167.765C538.784 167.95 538.67 168.136 538.484 168.18L535.626 168.864C535.6 168.871 535.572 168.874 535.546 168.874Z" fill="#FCAD4F"/>
<path d="M565.695 250.837C565.661 250.837 565.626 250.832 565.592 250.821L558.148 248.473C557.966 248.415 557.866 248.222 557.922 248.04C557.981 247.858 558.175 247.759 558.355 247.814L565.799 250.162C565.981 250.22 566.081 250.413 566.025 250.595C565.978 250.742 565.842 250.836 565.696 250.836L565.695 250.837Z" fill="#6E69E2"/>
<path d="M533.781 231.282C533.72 231.282 533.66 231.266 533.605 231.234C533.441 231.136 533.387 230.925 533.484 230.761L537.463 224.045C537.561 223.881 537.775 223.83 537.936 223.924C538.1 224.022 538.154 224.233 538.057 224.397L534.078 231.113C534.014 231.221 533.898 231.282 533.781 231.282Z" fill="#6E69E2"/>
<path d="M558.026 36.2104C558.026 36.2104 544.334 53.9424 558.926 62.7474C573.518 71.5524 572.917 58.8084 572.917 58.8084L563.746 34.7964L558.026 36.2104Z" fill="#EA594E"/>
<path d="M575.947 57.7622C575.947 57.7622 600.58 62.2952 608.786 81.6052C616.531 99.8322 588.541 109.221 584.29 95.0602C580.039 80.8992 575.947 57.7622 575.947 57.7622Z" fill="#FF793B"/>
<path d="M563.861 49.6694L563.95 58.8824C563.95 58.8824 565.609 61.5094 570.912 61.8784C574.862 62.1534 576.092 60.0744 576.092 60.0744L575.058 52.0254L565.47 50.0094L563.861 49.6694Z" fill="#F79674"/>
<path d="M565.469 50.0093C565.494 50.2603 565.591 50.5563 565.741 50.8953C567.812 55.4713 573.363 56.3903 575.644 56.5683L575.057 52.0253L565.469 50.0093Z" fill="black"/>
<path d="M576.957 31.0053C576.957 31.0053 581.309 42.8493 579.475 49.2893C577.642 55.7303 572.387 54.3443 568.877 53.0833C565.367 51.8223 563.745 49.6603 563.745 49.6603C563.745 49.6603 560.457 50.7603 558.274 47.6983C556.091 44.6363 557.457 41.1353 559.335 40.3393C561.213 39.5433 563.437 40.9063 563.437 40.9063L561.703 37.5633C561.703 37.5633 569.124 20.6433 576.957 31.0053Z" fill="#F79674"/>
<path d="M563.024 46.4554C562.935 46.4554 562.845 46.4214 562.778 46.3524L559.111 42.6184C558.977 42.4824 558.979 42.2634 559.116 42.1304C559.25 41.9974 559.47 41.9984 559.603 42.1344L563.27 45.8684C563.404 46.0044 563.402 46.2234 563.265 46.3564C563.199 46.4224 563.111 46.4554 563.024 46.4554Z" fill="black"/>
<path d="M559.314 45.7434C559.131 45.7434 558.979 45.6004 558.969 45.4164C558.959 45.2264 559.106 45.0644 559.296 45.0544L562.158 44.9054C562.328 44.8864 562.51 45.0414 562.52 45.2314C562.53 45.4214 562.383 45.5844 562.193 45.5934L559.331 45.7424C559.325 45.7424 559.319 45.7424 559.313 45.7424L559.314 45.7434Z" fill="black"/>
<path d="M563.438 40.9073C563.438 40.9073 567.471 40.5243 570.032 37.2223C572.593 33.9203 573.803 30.5363 573.803 30.5363C573.803 30.5363 575.506 30.8293 576.589 32.1913C577.386 33.1933 578.321 34.6473 578.321 34.6473C578.321 34.6473 578.437 30.0003 576.11 27.7073C573.783 25.4143 571.772 26.1953 571.772 26.1953C571.772 26.1953 566.654 23.2503 561.411 27.8503C556.168 32.4503 558.575 40.8393 558.575 40.8393C558.575 40.8393 561.224 39.8003 563.437 40.9063L563.438 40.9073Z" fill="#EA594E"/>
<path d="M576.762 45.0754C576.734 45.0754 576.704 45.0714 576.675 45.0634C576.49 45.0154 576.38 44.8274 576.428 44.6424C577.012 42.4104 575.495 40.5634 575.48 40.5444C575.359 40.3984 575.377 40.1814 575.523 40.0584C575.669 39.9354 575.886 39.9554 576.008 40.1004C576.08 40.1864 577.772 42.2324 577.096 44.8164C577.055 44.9714 576.915 45.0754 576.762 45.0754Z" fill="black"/>
<path d="M578.48 35.4764C578.461 35.4764 578.442 35.4754 578.422 35.4714L576.443 35.1344C576.256 35.1024 576.129 34.9244 576.161 34.7374C576.192 34.5504 576.368 34.4214 576.559 34.4554L578.537 34.7914C578.725 34.8234 578.851 35.0014 578.819 35.1884C578.791 35.3574 578.644 35.4754 578.479 35.4754L578.48 35.4764Z" fill="black"/>
<path d="M570.556 36.0743C570.404 36.0743 570.265 35.9723 570.223 35.8193C570.173 35.6353 570.282 35.4453 570.466 35.3963L573.425 34.5943C573.613 34.5443 573.798 34.6543 573.848 34.8373C573.898 35.0213 573.789 35.2113 573.605 35.2603L570.646 36.0623C570.616 36.0703 570.585 36.0743 570.556 36.0743Z" fill="black"/>
<path d="M522.646 30.4853C522.646 30.4853 516.285 20.8653 514.584 13.8773C512.883 6.88933 513.93 4.14233 514.961 3.75233C515.992 3.36233 518.061 7.50533 518.061 7.50533C518.061 7.50533 516.649 0.896325 518.925 0.0803254C521.201 -0.735675 523.105 4.93433 523.105 4.93433C523.105 4.93433 523.099 0.0123253 525.172 0.515325C527.245 1.01833 529.834 11.7083 529.834 11.7083C529.834 11.7083 530.356 6.05433 531.965 6.42233C533.573 6.79033 536.065 14.5003 535.521 17.5903C534.977 20.6803 532.835 24.6833 532.835 24.6833L522.646 30.4853Z" fill="#F79674"/>
<path d="M564.142 57.2964C564.142 57.2964 553.31 47.7694 547.192 37.4454C541.476 27.7994 538.522 20.9824 538.522 20.9824L517.742 27.6764C517.742 27.6764 521.248 43.7704 530.211 59.5924C539.174 75.4154 541.539 79.0034 541.539 79.0034C541.539 79.0034 539.738 110.941 540.245 111.564C540.752 112.187 554.559 115.015 570.063 114.223C585.567 113.432 588.101 111.875 588.948 111.408C589.428 111.143 588.066 93.2024 584.303 78.3554C581.424 66.9954 575.947 57.7614 575.947 57.7614C575.947 57.7614 575.322 63.7304 564.142 57.2954V57.2964Z" fill="#FF793B"/>
<path d="M527.564 23.6134C527.418 23.6134 527.282 23.5194 527.236 23.3734C525.674 18.4734 528.907 12.7764 529.045 12.5364C529.14 12.3704 529.353 12.3134 529.516 12.4104C529.681 12.5054 529.738 12.7164 529.643 12.8814C529.611 12.9374 526.423 18.5574 527.892 23.1634C527.951 23.3454 527.85 23.5394 527.668 23.5974C527.634 23.6084 527.598 23.6134 527.564 23.6134Z" fill="black"/>
<path d="M517.652 15.6783C517.526 15.6783 517.405 15.6093 517.344 15.4883C517.258 15.3183 517.327 15.1103 517.496 15.0253L527.891 9.77628C528.06 9.69128 528.268 9.75828 528.354 9.92928C528.44 10.0993 528.372 10.3063 528.202 10.3923L517.807 15.6413C517.757 15.6663 517.704 15.6783 517.652 15.6783Z" fill="black"/>
<path d="M519.241 32.2804C519.098 32.2804 518.966 32.1914 518.916 32.0494C518.853 31.8694 518.947 31.6724 519.127 31.6094L539.484 24.4654C539.664 24.4024 539.86 24.4964 539.923 24.6764C539.986 24.8564 539.892 25.0524 539.712 25.1164L519.355 32.2604C519.317 32.2734 519.279 32.2804 519.241 32.2804Z" fill="white"/>
<path d="M575.012 49.3313C574.968 49.3313 574.923 49.3293 574.878 49.3263C573.406 49.2133 572.624 46.9973 572.591 46.9033C572.552 46.7893 572.574 46.6623 572.652 46.5693C572.728 46.4763 572.848 46.4303 572.968 46.4493L576.944 47.0523C577.049 47.0683 577.142 47.1323 577.194 47.2253C577.246 47.3183 577.252 47.4313 577.209 47.5293C577.177 47.6053 576.418 49.3313 575.012 49.3313ZM573.479 47.2253C573.783 47.8313 574.305 48.5913 574.931 48.6393C575.603 48.6983 576.086 48.0873 576.355 47.6613L573.479 47.2253Z" fill="black"/>
<path d="M562.647 29.6342C562.647 29.6342 563.036 18.0362 554.148 20.7702C545.259 23.5042 551.221 33.5202 556.473 35.7342C561.725 37.9482 563.913 33.1772 563.913 33.1772L562.648 29.6352L562.647 29.6342Z" fill="#EA594E"/>
<path d="M604.992 95.0723C604.785 95.0633 604.639 94.9013 604.647 94.7113C605.142 84.2513 596.369 81.8713 595.995 81.7743C595.81 81.7273 595.7 81.5393 595.747 81.3553C595.794 81.1703 595.98 81.0583 596.166 81.1063C596.264 81.1303 605.858 83.7123 605.337 94.7433C605.328 94.9283 605.176 95.0723 604.992 95.0723Z" fill="white"/>
<path d="M593.434 88.9682C593.434 88.9682 591.245 79.3232 589.492 74.0512C587.53 68.1512 585.496 63.3752 584.453 61.0442C583.994 60.0172 583.077 59.0762 582.131 58.4672C581.215 57.8762 580.49 57.3952 579.423 57.3502C576.425 57.2242 575.744 57.3752 575.744 57.3752C575.744 57.3752 585.151 78.5602 586.878 88.5502C587.064 89.6242 593.434 88.9682 593.434 88.9682Z" fill="#2D386B"/>
<path d="M600.841 92.9974C601.311 89.2884 599.592 85.6444 596.452 83.6134C595.83 83.2114 595.237 82.8434 594.746 82.5654C592.62 81.3634 583.651 84.0634 583.651 84.0634C583.651 84.0634 577.217 86.0374 578.514 87.9214C579.81 89.8054 582.697 89.2504 583.448 89.8504C584.199 90.4504 580.873 97.4014 582.205 98.5504C584.343 100.394 592.686 101.529 596.879 99.9984C596.921 99.9834 596.962 99.9674 597.004 99.9514C599.466 99.0134 600.467 95.9464 600.841 92.9954V92.9974Z" fill="#F79674"/>
<path d="M586.646 90.5463C586.609 90.5443 583.411 90.1943 583.411 90.1943C583.222 90.1733 583.085 90.0033 583.105 89.8143C583.125 89.6253 583.279 89.4793 583.485 89.5093L586.683 89.8593C586.872 89.8793 587.009 90.0503 586.989 90.2393C586.969 90.4163 586.82 90.5463 586.646 90.5463Z" fill="black"/>
<path d="M591.231 84.1313C591.209 84.1313 591.186 84.1293 591.163 84.1243L587.505 83.3833C587.319 83.3453 587.197 83.1633 587.236 82.9773C587.274 82.7913 587.453 82.6703 587.642 82.7073L591.3 83.4483C591.487 83.4863 591.608 83.6683 591.57 83.8543C591.537 84.0183 591.393 84.1303 591.232 84.1303L591.231 84.1313Z" fill="black"/>
<path d="M572.24 60.6534C568.597 60.6534 564.152 57.3434 563.942 57.1854C563.79 57.0714 563.759 56.8544 563.874 56.7024C563.988 56.5504 564.205 56.5184 564.356 56.6344C564.412 56.6754 569.944 60.7914 573.396 59.8154C574.434 59.5224 575.163 58.8094 575.624 57.6354C575.694 57.4584 575.897 57.3704 576.071 57.4414C576.249 57.5114 576.336 57.7114 576.266 57.8884C575.727 59.2564 574.825 60.1284 573.581 60.4794C573.154 60.6004 572.702 60.6534 572.238 60.6534H572.24Z" fill="white"/>
<path d="M538.332 92.0554C538.332 92.0554 553.241 83.8594 560.201 68.5654C562.502 63.5094 565.052 56.0964 563.86 55.4634C562.318 54.6444 560.809 54.1514 560.809 54.1514C560.809 54.1514 551.653 72.8074 539.772 81.4754C528.054 90.0234 538.332 92.0554 538.332 92.0554Z" fill="#2D386B"/>
<path d="M578.296 40.9594C578.14 40.9594 577.998 40.8524 577.96 40.6934L577.464 38.6044C577.438 38.4924 577.469 38.3744 577.548 38.2904L578.227 37.5614C578.355 37.4224 578.575 37.4134 578.714 37.5444C578.853 37.6744 578.86 37.8924 578.731 38.0314L578.178 38.6254L578.632 40.5354C578.676 40.7204 578.561 40.9064 578.376 40.9504C578.349 40.9564 578.322 40.9594 578.296 40.9594Z" fill="black"/>
<path d="M572.645 41.6143C572.48 41.6143 572.336 41.4973 572.305 41.3293L571.931 39.2143C571.911 39.0983 571.951 38.9793 572.038 38.8993L573.026 37.9973C573.167 37.8693 573.384 37.8783 573.513 38.0203C573.641 38.1613 573.631 38.3793 573.491 38.5073L572.643 39.2813L572.984 41.2093C573.017 41.3973 572.892 41.5763 572.705 41.6093C572.685 41.6123 572.664 41.6143 572.644 41.6143H572.645Z" fill="black"/>
<path d="M287.332 227.099V250.405H310.124L310.639 228.57L287.332 227.099Z" fill="#F48C6C"/>
<path d="M346.97 270.073C345.599 270.603 287.761 270.89 286.467 268.72C286.074 268.065 285.834 265.868 285.709 263.112C285.593 260.828 285.544 258.155 285.53 255.649C285.505 251.201 286.024 246.78 286.875 242.414C286.932 242.121 286.973 241.856 286.99 241.638C287.092 240.128 310.64 241.098 310.64 241.098L331.011 256.478C331.011 256.478 335.991 255.706 341.389 256.71C344.249 257.233 346.022 260.79 346.865 264.123C347.615 267.08 347.621 269.816 346.97 270.073Z" fill="#0A84FF"/>
<path d="M346.97 270.073C345.599 270.603 287.761 270.89 286.467 268.72C286.074 268.065 285.834 265.868 285.709 263.112C296.681 264.139 323.689 266.222 346.865 264.123C347.615 267.08 347.621 269.816 346.97 270.073Z" fill="#6E69E2"/>
<path d="M326.752 253.308C326.709 253.305 316.433 252.014 316.433 252.014C316.306 251.998 316.199 251.913 316.153 251.793C316.108 251.674 316.133 251.538 316.218 251.442L319.905 247.294C320.033 247.152 320.25 247.14 320.392 247.266C320.534 247.393 320.547 247.611 320.42 247.753L317.168 251.411L326.794 252.621C326.983 252.644 327.117 252.816 327.093 253.006C327.072 253.181 326.923 253.308 326.751 253.308H326.752Z" fill="white"/>
<path d="M338.916 226.4L346.789 248.336L368.241 240.637L361.351 219.912L338.916 226.4Z" fill="#F48C6C"/>
<path d="M409.564 246.703C408.452 247.665 354.111 267.472 352.16 265.866C351.569 265.383 350.601 263.395 349.552 260.844C348.671 258.733 347.723 256.234 346.863 253.88C345.337 249.702 344.332 245.366 343.658 240.969C343.613 240.674 343.562 240.411 343.504 240.2C343.09 238.744 365.582 231.703 365.582 231.703L389.951 239.298C389.951 239.298 394.377 236.889 399.798 236.011C402.667 235.537 405.537 238.286 407.456 241.138C409.16 243.668 410.09 246.241 409.564 246.703Z" fill="#0A84FF"/>
<path d="M409.565 246.703C408.453 247.665 354.112 267.472 352.161 265.866C351.57 265.383 350.602 263.395 349.553 260.844C360.227 258.105 386.351 250.942 407.456 241.138C409.16 243.668 410.091 246.241 409.565 246.703Z" fill="#6E69E2"/>
<path d="M374.648 240.03C374.548 240.03 374.452 239.987 374.385 239.909C374.302 239.811 374.28 239.676 374.327 239.556L376.396 234.406C376.468 234.23 376.666 234.144 376.845 234.215C377.022 234.286 377.107 234.487 377.036 234.664L375.211 239.206L384.68 237.092C384.869 237.056 385.05 237.168 385.092 237.354C385.133 237.54 385.016 237.724 384.83 237.766L374.722 240.023C374.697 240.028 374.672 240.031 374.647 240.031L374.648 240.03Z" fill="white"/>
<path d="M281.428 70.9272C281.428 70.9272 264.819 90.4862 272.852 113.638C280.884 136.79 305.735 124.145 307.89 118.783C310.045 113.422 306.278 92.4132 306.278 92.4132L289.842 68.3752L281.428 70.9272Z" fill="#EF6354"/>
<path d="M317.492 30.0973C317.996 32.8513 319.978 34.7963 321.917 34.4413C323.856 34.0863 325.02 31.5663 324.516 28.8123C324.012 26.0583 322.03 24.1133 320.091 24.4683C318.152 24.8233 316.988 27.3433 317.492 30.0973Z" fill="#6E69E2"/>
<path d="M342.344 86.4783L348.568 115.038C348.568 115.038 353.061 131.18 353.062 135.051C353.064 138.922 346.008 144.301 346.008 144.301L344.659 137.924C344.659 137.924 345.233 134.369 344.39 131.602C343.547 128.835 342 132.198 342 132.198L335.695 124.711L324.77 91.8993L342.344 86.4783Z" fill="#F48C6C"/>
<path d="M335.037 100.311L370.519 224.222C370.519 224.222 336.952 237.697 335.425 237.35C333.898 237.002 322.819 185.94 322.819 185.94C322.819 185.94 322.073 237.402 322.204 237.697C322.335 237.992 285.031 238.159 282.727 237.127C280.423 236.095 289.194 108.531 289.194 108.531L335.037 100.311Z" fill="#342E37"/>
<path d="M267.157 85.5973C267.157 85.5973 273.744 60.7053 287.777 50.9683C301.81 41.2313 327.818 43.4273 334.172 48.8923C340.2 54.0763 348.491 82.1843 348.491 82.1843L337.608 93.0663L339.375 109.662L288.541 112.955L288.635 86.1453L267.156 85.5963L267.157 85.5973Z" fill="#0A84FF"/>
<path d="M307.605 36.4124L307.488 45.1154C307.488 45.1154 309.024 47.6384 314.109 48.1204C317.897 48.4794 319.067 45.9984 319.067 45.9984L318.772 43.2254L318.309 38.9204L309.143 36.7744L307.605 36.4124Z" fill="#F48C6C"/>
<path d="M309.145 36.7734C309.164 37.0114 309.25 37.2934 309.386 37.6164C311.275 41.9894 316.586 42.9984 318.774 43.2244L318.311 38.9194L309.145 36.7734Z" fill="black"/>
<path d="M320.519 19.1103C320.519 19.1103 324.939 30.0833 323.057 36.1213C321.175 42.1593 315.656 41.0403 312.372 39.7673C309.088 38.4943 307.606 36.4143 307.606 36.4143C307.606 36.4143 304.476 37.3753 302.486 34.4333C300.496 31.4903 301.869 28.2173 303.661 27.5103C305.453 26.8033 307.521 28.1423 307.521 28.1423L305.963 24.9453C305.963 24.9453 313.367 9.14334 320.52 19.1113L320.519 19.1103Z" fill="#F48C6C"/>
<path d="M307.14 32.8102C307.074 32.8102 307.006 32.7902 306.949 32.7472L303.066 29.8742C302.923 29.7682 302.893 29.5672 302.999 29.4242C303.104 29.2822 303.306 29.2502 303.449 29.3572L307.332 32.2302C307.475 32.3352 307.505 32.5372 307.399 32.6802C307.336 32.7652 307.239 32.8102 307.14 32.8102Z" fill="black"/>
<path d="M303.565 32.7134C303.42 32.7134 303.289 32.6144 303.253 32.4674C303.211 32.2944 303.317 32.1204 303.489 32.0784L306.08 31.4484C306.255 31.4034 306.427 31.5124 306.469 31.6844C306.511 31.8574 306.405 32.0314 306.233 32.0734L303.642 32.7034C303.617 32.7094 303.59 32.7124 303.566 32.7124L303.565 32.7134Z" fill="black"/>
<path d="M313.397 24.1553C313.359 24.1553 313.32 24.1483 313.281 24.1353C313.102 24.0713 313.009 23.8743 313.072 23.6953C313.721 21.8773 315.302 21.6563 316.049 21.7933C316.236 21.8273 316.361 22.0073 316.325 22.1943C316.291 22.3803 316.117 22.5063 315.926 22.4713C315.865 22.4613 314.332 22.2163 313.722 23.9263C313.671 24.0673 313.538 24.1553 313.397 24.1553Z" fill="black"/>
<path d="M321.617 23.3044C321.538 23.3044 321.459 23.2774 321.393 23.2224C320.774 22.6964 320.498 22.5914 320.417 22.5704C320.304 22.6114 320.172 22.5894 320.074 22.5044C319.93 22.3784 319.917 22.1604 320.043 22.0174C320.469 21.5314 321.501 22.4094 321.84 22.6954C321.985 22.8184 322.002 23.0364 321.879 23.1814C321.811 23.2624 321.714 23.3034 321.616 23.3034L321.617 23.3044Z" fill="black"/>
<path d="M320.23 32.4214C320.111 32.4214 319.994 32.3594 319.93 32.2474C319.836 32.0814 319.894 31.8714 320.059 31.7764C320.442 31.5584 320.657 31.2654 320.715 30.8814C320.906 29.6284 319.407 27.7034 318.815 27.0674C318.685 26.9284 318.693 26.7094 318.832 26.5804C318.972 26.4504 319.189 26.4584 319.319 26.5974C319.416 26.7004 321.677 29.1464 321.398 30.9854C321.306 31.5834 320.971 32.0524 320.401 32.3774C320.347 32.4084 320.289 32.4214 320.23 32.4214Z" fill="black"/>
<path d="M294.324 47.2563C294.324 47.2563 295.993 60.0663 294.79 68.6333C293.505 77.7853 289.607 91.3813 289.607 91.3813L291.758 94.5053C291.758 94.5053 295.256 92.6663 297.224 89.7073C299.655 86.0513 303.898 74.9333 303.928 61.3563C303.952 50.2233 302.491 44.8943 302.491 44.8943C302.491 44.8943 296.069 45.4693 294.323 47.2553L294.324 47.2563Z" fill="#EF6354"/>
<path d="M321.045 44.3654C321.045 44.3654 325.079 48.5294 328.796 57.3514C332.512 66.1734 336.043 82.8864 336.043 82.8864C336.043 82.8864 334.575 54.5384 332.153 48.7314C330.241 44.1494 321.045 44.3644 321.045 44.3644V44.3654Z" fill="#EF6354"/>
<path d="M321.521 27.4853C321.368 27.4853 321.227 27.3823 321.187 27.2263L320.669 25.2233C320.621 25.0383 320.732 24.8513 320.917 24.8033C321.1 24.7583 321.29 24.8673 321.337 25.0513L321.855 27.0543C321.903 27.2393 321.792 27.4273 321.607 27.4743C321.579 27.4813 321.549 27.4853 321.521 27.4853Z" fill="black"/>
<path d="M316.013 27.8432C315.86 27.8432 315.72 27.7392 315.68 27.5842L315.162 25.5812C315.114 25.3962 315.225 25.2082 315.409 25.1612C315.592 25.1162 315.782 25.2252 315.829 25.4092L316.347 27.4122C316.395 27.5972 316.284 27.7852 316.099 27.8322C316.071 27.8392 316.041 27.8432 316.013 27.8432Z" fill="black"/>
<path d="M308.394 99.0542L328.085 111.073C328.801 111.51 329.915 111.326 330.573 110.663L357.179 83.8432C357.837 83.1792 357.79 82.2872 357.074 81.8502L337.383 69.8312C336.667 69.3942 335.553 69.5782 334.895 70.2412L308.289 97.0612C307.631 97.7242 307.678 98.6172 308.394 99.0542Z" fill="#5A5AE0"/>
<path d="M310.696 100.451L330.387 112.47C331.103 112.907 332.217 112.723 332.875 112.06L359.481 85.2404C360.139 84.5764 360.092 83.6844 359.376 83.2474L339.685 71.2294C338.969 70.7924 337.855 70.9764 337.197 71.6394L310.591 98.4594C309.933 99.1234 309.98 100.015 310.696 100.452V100.451Z" fill="#6E69E2"/>
<path d="M309.288 77.4643C310.314 76.2233 311.859 75.5403 313.467 75.6393C316.09 75.8003 320.051 76.1083 320.966 76.5323C322.362 77.1793 325.534 79.7323 325.534 79.7323L324.227 81.5823C324.227 81.5823 336.289 87.8803 335.313 90.3633C334.648 92.0543 329.297 89.6323 329.297 89.6323C329.297 89.6323 334.649 92.5983 333.719 94.4523C332.79 96.3063 325.892 93.3883 325.892 93.3883C325.892 93.3883 331.211 96.8003 328.39 97.6393C325.568 98.4783 306.348 93.1953 305.341 87.5363C304.678 83.8143 307.368 79.7863 309.288 77.4643Z" fill="#F48C6C"/>
<path d="M324.687 81.7614C324.624 81.7614 324.562 81.7444 324.505 81.7094L321.433 79.7994C321.271 79.6984 321.221 79.4854 321.322 79.3244C321.423 79.1614 321.635 79.1124 321.797 79.2134L324.869 81.1234C325.031 81.2244 325.081 81.4374 324.98 81.5984C324.915 81.7034 324.802 81.7614 324.687 81.7614Z" fill="black"/>
<path d="M330.242 90.3083C330.186 90.3083 330.131 90.2953 330.079 90.2673L322.029 85.9483C321.861 85.8583 321.799 85.6493 321.888 85.4813C321.979 85.3133 322.187 85.2503 322.355 85.3403L330.405 89.6593C330.573 89.7493 330.635 89.9583 330.546 90.1263C330.484 90.2423 330.365 90.3083 330.242 90.3083Z" fill="black"/>
<path d="M326.845 94.3554C326.789 94.3554 326.733 94.3424 326.68 94.3144L319.461 90.3904C319.294 90.2994 319.233 90.0894 319.323 89.9224C319.414 89.7544 319.623 89.6934 319.791 89.7834L327.01 93.7074C327.177 93.7984 327.238 94.0084 327.148 94.1754C327.086 94.2904 326.967 94.3554 326.845 94.3554Z" fill="black"/>
<path d="M268.736 85.6373C268.736 85.6373 264.294 102.517 279.759 104.808C295.224 107.099 309.145 91.6563 309.145 91.6563L311.072 76.0923L280.475 85.9363L268.737 85.6363L268.736 85.6373Z" fill="#F48C6C"/>
<path d="M322.821 186.285C322.631 186.285 322.476 186.132 322.476 185.941L322.326 128.973C322.326 128.829 322.414 128.701 322.549 128.65L336.476 123.376C336.654 123.308 336.854 123.398 336.92 123.576C336.987 123.754 336.898 123.953 336.72 124.02L323.017 129.21L323.166 185.939C323.166 186.129 323.012 186.285 322.821 186.285Z" fill="#6E69E2"/>
<path d="M344.389 131.947C344.359 131.947 344.328 131.943 344.298 131.935C344.114 131.884 344.006 131.695 344.056 131.511C344.079 131.428 346.277 123.212 342.746 120.55C342.595 120.436 342.564 120.219 342.679 120.067C342.792 119.915 343.009 119.884 343.162 120C347.064 122.943 344.818 131.338 344.722 131.693C344.68 131.846 344.54 131.947 344.389 131.947Z" fill="black"/>
<path d="M317.381 34.7594C317.364 34.7594 317.347 34.7584 317.329 34.7554C317.247 34.7434 315.314 34.4294 314.387 32.6474C314.299 32.4784 314.365 32.2704 314.533 32.1824C314.7 32.0964 314.91 32.1604 314.998 32.3294C315.766 33.8044 317.416 34.0714 317.433 34.0734C317.621 34.1014 317.751 34.2784 317.722 34.4664C317.697 34.6374 317.549 34.7594 317.381 34.7594Z" fill="black"/>
<path d="M308.52 29.9123C308.52 29.9123 307.601 25.5733 307.489 25.1703C307.377 24.7673 310.521 19.9083 315.755 19.1933C320.928 18.4873 320.829 19.9273 320.829 19.9273C320.829 19.9273 322.146 12.6193 321.264 12.0473C320.382 11.4753 319.811 12.5473 319.811 12.5473C319.811 12.5473 318.774 8.90334 316.037 9.33134C313.878 9.66934 313.398 11.9033 313.398 11.9033C313.398 11.9033 312.594 8.97334 309.665 10.1173C306.735 11.2603 304.02 18.4063 304.02 18.4063C304.02 18.4063 300.876 17.9063 300.304 20.5503C299.732 23.1943 302.046 29.1073 302.046 29.1073C302.046 29.1073 302.896 27.3733 305.239 27.6963C307.582 28.0193 308.522 29.9113 308.522 29.9113L308.52 29.9123Z" fill="black"/>
<path d="M314.37 48.2334C312.292 48.2334 309.839 47.5444 307.267 45.3784C307.121 45.2564 307.103 45.0384 307.226 44.8924C307.349 44.7454 307.566 44.7284 307.712 44.8504C314.277 50.3814 319.8 45.8134 320.032 45.6164C320.176 45.4934 320.395 45.5104 320.518 45.6554C320.641 45.8004 320.624 46.0174 320.479 46.1414C320.441 46.1744 317.964 48.2334 314.37 48.2334Z" fill="white"/>
<path d="M302.479 31.4342C302.983 34.1882 304.964 36.1332 306.903 35.7782C308.842 35.4232 310.006 32.9032 309.502 30.1492C308.998 27.3952 307.017 25.4502 305.078 25.8052C303.139 26.1602 301.975 28.6802 302.479 31.4342Z" fill="#6E69E2"/>
<path d="M301.353 30.6474C301.954 33.9324 304.013 36.3064 305.953 35.9524C307.892 35.5974 308.977 32.6474 308.376 29.3624C307.775 26.0774 305.716 23.7034 303.776 24.0574C301.837 24.4124 300.752 27.3624 301.353 30.6474Z" fill="#0A84FF"/>
<path d="M305.04 16.0703C305.04 16.0703 303.014 21.8193 304.862 27.1403C306.71 32.4613 302.804 29.9123 302.804 29.9123C302.804 29.9123 300.703 21.2113 305.04 16.0703Z" fill="#0A84FF"/>
<path d="M471.529 39.0252C471.529 39.0252 482.084 36.1852 489.936 45.8002C497.787 55.4152 492.908 67.2522 480.47 66.9122C468.032 66.5722 465.139 53.8602 465.139 53.8602L471.529 39.0242V39.0252Z" fill="#FCAD4F"/>
<path d="M474.1 231.923L477.754 247.26L497.362 240.642L494.258 225.016L474.1 231.923Z" fill="#F48C6C"/>
<path d="M430.894 229.631L426.705 244.83L447.074 248.481L451.886 233.295L430.894 229.631Z" fill="#F48C6C"/>
<path d="M444.258 115.508L420.369 228.014L454.339 238.546L460.259 214.756L466.747 237.862L501.995 228.013C501.995 228.013 491.412 150.271 488.31 138.713C485.207 127.155 483.15 114.207 483.15 114.207L444.259 115.508H444.258Z" fill="#FF793B"/>
<path d="M462.221 125.11C462.221 125.11 468.557 153.706 470.507 154.436C472.457 155.166 497.665 148.766 499.701 147.705C501.737 146.644 494.547 117.28 494.547 117.28L462.221 125.11Z" fill="#F79B37"/>
<path d="M466.1 124.872C466.1 124.872 472.42 153.005 474.37 153.722C476.32 154.439 501.53 148.128 503.567 147.083C505.604 146.038 498.43 117.149 498.43 117.149L466.1 124.872Z" fill="#FCAD4F"/>
<path d="M452.679 259.577C452.557 263.006 452.127 265.502 451.166 265.696C446.907 266.554 404.562 268.522 402.372 267.968C400.181 267.406 393.483 267.084 393.524 262.917C393.538 262.111 393.854 261.352 394.36 260.668C396.453 257.792 401.796 256.02 401.796 256.02L425.553 241.864C425.553 241.864 425.645 240.714 425.749 239.441C425.884 237.866 427.57 236.94 428.961 237.675L439.667 243.283L449.755 238.88C450.543 238.366 451.593 238.868 451.681 239.808C452.092 244.098 452.888 253.37 452.68 259.577H452.679Z" fill="#37D3ED"/>
<path d="M507.602 255.718C506.41 256.555 501.439 257.306 495.334 257.932C483.14 259.183 466.455 259.949 466.455 259.949L474.556 244.222C474.556 244.222 474.17 243.136 473.756 241.93C473.243 240.442 474.42 238.906 475.986 239.017L488.046 239.836L495.498 231.746C496.017 230.956 497.181 230.99 497.64 231.813C499.56 235.239 503.432 242.319 505.847 247.909C507.556 251.855 508.532 255.06 507.602 255.718Z" fill="#37D3ED"/>
<path d="M410.833 98.7543C410.833 98.7543 399.321 100.705 392.095 99.4583C384.869 98.2103 382.696 96.1553 382.732 95.0573C382.767 93.9603 387.464 93.7313 387.464 93.7313C387.464 93.7313 380.706 92.3723 380.826 89.9683C380.946 87.5643 387.012 88.0983 387.012 88.0983C387.012 88.0983 382.386 86.1323 383.666 84.4413C384.946 82.7503 395.995 84.6713 395.995 84.6713C395.995 84.6713 390.887 81.9293 391.86 80.6083C392.833 79.2873 401.044 80.1023 403.734 81.8373C406.424 83.5723 409.351 87.1313 409.351 87.1313L410.834 98.7553L410.833 98.7543Z" fill="#F48C6C"/>
<path d="M405.179 91.9274C405.148 91.9274 405.116 91.9234 405.083 91.9134C397.241 89.6594 395.703 85.1044 395.642 84.9114C395.583 84.7304 395.683 84.5374 395.865 84.4784C396.047 84.4214 396.24 84.5194 396.299 84.7004C396.314 84.7434 397.816 89.1054 405.276 91.2494C405.459 91.3024 405.564 91.4934 405.511 91.6764C405.468 91.8274 405.33 91.9264 405.18 91.9264L405.179 91.9274Z" fill="black"/>
<path d="M396.329 97.8513C396.15 97.8513 395.999 97.7133 395.985 97.5333L395.036 85.0723C395.021 84.8823 395.164 84.7163 395.353 84.7023C395.541 84.6853 395.709 84.8303 395.723 85.0193L396.672 97.4803C396.687 97.6703 396.544 97.8363 396.355 97.8503C396.346 97.8513 396.337 97.8513 396.329 97.8513Z" fill="black"/>
<path d="M448.259 64.9854C448.259 64.9854 433.935 81.4174 427.944 82.6824C421.952 83.9474 408.137 81.7843 408.137 81.7843L404.822 105.058C404.822 105.058 416.291 111.037 430.45 110.021C439.74 109.354 447.704 106.651 447.704 106.651L448.259 64.9854Z" fill="#342E37"/>
<path d="M427.43 91.5242C426.845 91.5242 426.507 91.2402 426.324 90.9912C425.013 89.2172 427.354 83.2302 427.625 82.5532C427.678 82.4222 427.805 82.3372 427.945 82.3372C428.1 82.3412 428.226 82.4362 428.272 82.5732C428.354 82.8212 430.272 88.6662 428.899 90.7452C428.591 91.2112 428.15 91.4712 427.589 91.5182C427.534 91.5222 427.482 91.5252 427.431 91.5252L427.43 91.5242ZM427.91 83.7552C427.15 85.8822 426.096 89.5222 426.879 90.5822C426.969 90.7042 427.133 90.8592 427.532 90.8302C427.882 90.8012 428.132 90.6532 428.323 90.3652C429.153 89.1102 428.466 85.7462 427.91 83.7552Z" fill="#6E69E2"/>
<path d="M443.417 117.789C443.417 117.789 442.573 71.9323 446.467 66.9073C450.361 61.8823 455.298 61.7183 461.57 60.9453C467.842 60.1723 476.66 61.2373 479.844 62.6383C483.029 64.0383 485.951 116.247 484.151 117.625C482.351 119.003 455.793 123.592 443.416 117.79L443.417 117.789Z" fill="#342E37"/>
<path d="M453.89 131.031L461.955 128.236C463.281 127.776 463.983 126.328 463.523 125.002L455.966 103.2C455.506 101.874 454.059 101.172 452.733 101.632L444.669 104.427C443.343 104.886 442.64 106.334 443.1 107.66L450.657 129.462C451.117 130.788 452.564 131.49 453.89 131.031Z" fill="#EF6354"/>
<path d="M451.822 62.5862C451.822 62.5862 454.533 98.5902 474.378 110.367C494.223 122.144 484.423 111.381 484.423 111.381C484.423 111.381 472.952 100.103 467.559 91.1792C460.251 79.0842 457.941 61.2112 457.941 61.2112L451.822 62.5862Z" fill="#FCAD4F"/>
<path d="M451.367 131.911L459.431 129.116C460.757 128.656 461.459 127.209 461 125.883L453.442 104.08C452.982 102.754 451.535 102.052 450.209 102.512L442.145 105.307C440.819 105.767 440.116 107.214 440.576 108.54L448.134 130.343C448.594 131.669 450.041 132.371 451.367 131.911Z" fill="white"/>
<path d="M457.801 108.468L458.811 111.381C458.811 111.381 451.205 114.988 451.284 116.622C451.362 118.255 454.202 119.227 454.202 119.227C454.202 119.227 453.698 122.766 454.281 123.893C454.865 125.021 456.991 130.578 460.324 131.103C463.657 131.629 474.893 122.952 474.893 122.952L472.407 110.082C472.407 110.082 459.196 107.937 457.801 108.468Z" fill="#F48D71"/>
<path d="M458.81 111.726C458.637 111.726 458.489 111.598 458.467 111.422C458.445 111.233 458.579 111.061 458.769 111.039L464.503 110.351C464.689 110.325 464.863 110.463 464.887 110.652C464.909 110.841 464.775 111.013 464.585 111.035L458.851 111.723C458.837 111.725 458.824 111.726 458.81 111.726Z" fill="black"/>
<path d="M472.837 61.1152C472.837 61.1152 486.195 61.2182 500.062 77.6072C513.23 93.1702 513.791 111.816 500.062 119.61C486.333 127.403 474.548 127.429 474.548 127.429L469.137 107.096L483.536 100.744L472.837 61.1152Z" fill="#342E37"/>
<path d="M477.115 103.901C476.999 103.901 476.885 103.842 476.82 103.735C476.721 103.572 476.773 103.36 476.936 103.261C477.012 103.215 484.668 98.6142 494.175 95.5902C494.361 95.5312 494.551 95.6333 494.609 95.8143C494.667 95.9963 494.566 96.1893 494.384 96.2473C484.958 99.2453 477.368 103.805 477.293 103.851C477.237 103.885 477.177 103.901 477.115 103.901Z" fill="#6E69E2"/>
<path d="M485.39 99.3102C485.315 99.3102 485.24 99.2862 485.177 99.2372C485.054 99.1402 485.011 98.9742 485.073 98.8302C485.649 97.4802 488.628 90.7632 490.77 90.7632C491.707 90.7752 492.262 91.0482 492.433 91.5722C493.067 93.5162 486.85 98.3012 485.597 99.2402C485.536 99.2862 485.462 99.3102 485.39 99.3102ZM490.768 91.4542C489.634 91.4542 487.61 94.9832 486.268 97.8512C489.021 95.6582 492.088 92.7432 491.777 91.7872C491.686 91.5082 491.11 91.4592 490.775 91.4542H490.768Z" fill="#6E69E2"/>
<path d="M460.259 215.101C460.077 215.101 459.926 214.959 459.914 214.777L455.275 136.487L446.331 133.893C446.147 133.84 446.042 133.649 446.096 133.466C446.15 133.283 446.336 133.175 446.523 133.231L455.702 135.892C455.843 135.932 455.942 136.057 455.951 136.202L460.604 214.735C460.615 214.926 460.47 215.089 460.28 215.1H460.26L460.259 215.101Z" fill="white"/>
<path d="M468.831 226.206C468.682 226.206 468.544 226.108 468.5 225.957C468.446 225.774 468.552 225.583 468.735 225.53L499.918 216.482C500.098 216.426 500.291 216.535 500.345 216.717C500.399 216.9 500.293 217.091 500.11 217.144L468.927 226.192C468.896 226.202 468.863 226.206 468.831 226.206Z" fill="white"/>
<path d="M456.384 226.62C456.354 226.62 456.324 226.616 456.292 226.607L430.358 219.458C430.174 219.408 430.067 219.218 430.118 219.034C430.169 218.851 430.355 218.742 430.542 218.794L456.476 225.943C456.66 225.993 456.767 226.183 456.716 226.367C456.674 226.519 456.535 226.62 456.384 226.62Z" fill="white"/>
<path d="M507.603 255.718C507.603 255.718 488.366 273.686 485.312 274.332C482.258 274.97 453.051 277.169 452.445 275.31C451.856 273.499 453.14 271.244 455.14 269.013C459.266 264.409 466.456 259.948 466.456 259.948L494.635 250.331L500.739 252.862L507.603 255.717V255.718Z" fill="#37D3ED"/>
<path d="M452.679 259.577C452.557 263.006 452.127 265.502 451.166 265.696C446.907 266.554 404.562 268.522 402.372 267.968C400.181 267.406 393.483 267.084 393.524 262.917C393.538 262.111 393.854 261.352 394.36 260.668C396.615 260.959 402.984 261.651 412.814 261.731C423.507 261.823 446.375 260.071 452.68 259.576L452.679 259.577Z" fill="#FCAD4F"/>
<path d="M507.603 255.718C507.603 255.718 488.366 273.686 485.312 274.332C482.258 274.97 453.051 277.169 452.445 275.31C451.856 273.499 453.14 271.244 455.14 269.013C462.328 268.66 480.836 267.671 484.006 266.842C485.764 266.377 490.559 262.312 495.335 257.931C497.198 256.226 499.06 254.472 500.739 252.862C502.845 250.856 504.665 249.079 505.846 247.909C507.555 251.855 508.532 255.06 507.602 255.718H507.603Z" fill="#FCAD4F"/>
<path d="M471.468 250.561C471.282 250.561 471.129 250.415 471.123 250.228C471.117 250.038 471.266 249.877 471.456 249.872L478.397 249.642C478.596 249.643 478.748 249.785 478.753 249.975C478.758 250.165 478.61 250.326 478.42 250.331L471.479 250.561H471.468Z" fill="#FCAD4F"/>
<path d="M425.896 247.754C425.835 247.754 425.772 247.737 425.716 247.703L420.952 244.792C420.789 244.693 420.738 244.48 420.838 244.318C420.937 244.155 421.15 244.104 421.312 244.204L426.076 247.115C426.239 247.214 426.29 247.426 426.19 247.589C426.126 247.695 426.012 247.754 425.896 247.754Z" fill="#FCAD4F"/>
<path d="M455.682 46.9393C455.682 46.9393 452.681 43.7483 453.431 38.7003C453.939 35.2773 455.436 34.1443 455.436 34.1443C455.436 34.1443 453.034 29.5323 459.923 29.6813C466.812 29.8313 472.456 29.2433 475.526 35.1693C477.335 38.6603 476.615 46.2443 476.615 46.2443L455.682 46.9393Z" fill="#FCAD4F"/>
<path d="M470.408 53.2373L470.307 61.7303C470.307 61.7303 468.738 64.1553 463.739 64.5043C460.015 64.7643 458.859 62.8513 458.859 62.8513L459.849 55.4293L468.892 53.5533L470.408 53.2373Z" fill="#F48C6C"/>
<path d="M468.892 53.5693C468.869 53.8203 468.779 54.1153 468.64 54.4533C466.709 59.0163 461.38 59.9093 459.229 60.0753L459.767 55.2843L468.892 53.5693Z" fill="black"/>
<path d="M457.311 34.5744C457.311 34.5744 452.959 46.4184 454.792 52.8584C456.625 59.2994 461.88 57.9134 465.39 56.6524C468.9 55.3914 470.522 53.2294 470.522 53.2294C470.522 53.2294 473.81 54.3294 475.993 51.2674C478.176 48.2054 476.81 44.7044 474.932 43.9084C473.054 43.1124 470.83 44.4754 470.83 44.4754L472.563 41.1334C472.563 41.1334 465.142 24.2124 457.309 34.5744H457.311Z" fill="#F48C6C"/>
<path d="M471.246 50.0232C471.159 50.0232 471.071 49.9902 471.005 49.9242C470.868 49.7912 470.866 49.5722 471 49.4362L474.666 45.7032C474.799 45.5662 475.019 45.5652 475.153 45.6992C475.29 45.8322 475.292 46.0512 475.158 46.1872L471.492 49.9202C471.425 49.9892 471.335 50.0232 471.246 50.0232Z" fill="black"/>
<path d="M474.954 49.3114C474.936 49.3114 472.074 49.1624 472.074 49.1624C471.884 49.1524 471.737 48.9904 471.747 48.8004C471.757 48.6104 471.911 48.4544 472.109 48.4744L474.971 48.6234C475.161 48.6334 475.308 48.7954 475.298 48.9854C475.288 49.1694 475.136 49.3124 474.953 49.3124L474.954 49.3114Z" fill="black"/>
<path d="M457.505 48.6443C457.352 48.6443 457.212 48.5413 457.171 48.3863C456.495 45.8023 458.188 43.7553 458.26 43.6693C458.382 43.5233 458.6 43.5043 458.745 43.6273C458.891 43.7493 458.909 43.9663 458.787 44.1123C458.772 44.1313 457.255 45.9793 457.839 48.2103C457.887 48.3953 457.777 48.5833 457.592 48.6313C457.563 48.6393 457.533 48.6443 457.505 48.6443Z" fill="black"/>
<path d="M455.788 39.0452C455.623 39.0452 455.477 38.9262 455.448 38.7582C455.416 38.5702 455.543 38.3922 455.73 38.3602L457.708 38.0242C457.902 37.9932 458.074 38.1192 458.105 38.3062C458.137 38.4942 458.01 38.6722 457.823 38.7042L455.845 39.0402C455.826 39.0432 455.806 39.0452 455.787 39.0452H455.788Z" fill="black"/>
<path d="M463.712 39.6433C463.683 39.6433 463.653 39.6393 463.622 39.6313L460.663 38.8293C460.478 38.7793 460.37 38.5903 460.42 38.4063C460.471 38.2233 460.656 38.1143 460.843 38.1633L463.802 38.9653C463.986 39.0153 464.095 39.2043 464.045 39.3883C464.003 39.5413 463.864 39.6433 463.712 39.6433Z" fill="black"/>
<path d="M455.971 44.5282C455.945 44.5282 455.918 44.5252 455.891 44.5182C455.706 44.4742 455.591 44.2882 455.635 44.1032L456.09 42.1932L455.536 41.5992C455.406 41.4592 455.413 41.2412 455.553 41.1112C455.692 40.9822 455.911 40.9892 456.04 41.1282L456.72 41.8572C456.799 41.9412 456.83 42.0602 456.804 42.1722L456.307 44.2612C456.269 44.4202 456.127 44.5282 455.971 44.5282Z" fill="black"/>
<path d="M461.625 45.1833C461.606 45.1833 461.585 45.1813 461.565 45.1783C461.378 45.1453 461.253 44.9663 461.286 44.7783L461.627 42.8503L460.778 42.0763C460.637 41.9483 460.628 41.7293 460.756 41.5893C460.884 41.4473 461.102 41.4393 461.243 41.5663L462.232 42.4683C462.319 42.5483 462.36 42.6673 462.339 42.7833L461.965 44.8983C461.935 45.0653 461.789 45.1833 461.625 45.1833Z" fill="black"/>
<path d="M470.718 44.3732C470.718 44.3732 465.555 45.4312 461.92 40.5182C458.286 35.6062 458.598 33.5372 458.598 33.5372L455.063 38.8172C455.063 38.8172 454.233 35.2502 455.861 32.9152C457.489 30.5792 462.774 29.7222 462.774 29.7222L470.625 33.1612L473.695 41.0402L470.718 44.3732Z" fill="#FCAD4F"/>
<path d="M458.525 51.9943C458.335 51.9943 458.181 51.8403 458.18 51.6503C458.18 51.4603 458.333 51.3053 458.524 51.3043C458.54 51.3043 460.056 51.2853 460.72 50.2383C460.822 50.0773 461.034 50.0313 461.195 50.1313C461.356 50.2333 461.404 50.4463 461.301 50.6073C460.433 51.9783 458.602 51.9943 458.525 51.9943Z" fill="black"/>
<path d="M448.26 92.4512C448.101 92.4512 447.958 92.3412 447.923 92.1792C446.09 83.7342 449.018 76.1142 449.047 76.0382C449.117 75.8612 449.315 75.7742 449.494 75.8432C449.671 75.9132 449.759 76.1132 449.689 76.2902C449.66 76.3642 446.809 83.7982 448.596 92.0332C448.637 92.2192 448.519 92.4032 448.332 92.4432C448.308 92.4482 448.282 92.4512 448.259 92.4512H448.26Z" fill="#6E69E2"/>
<path d="M463.019 64.8713C460 64.8713 458.605 63.0883 458.583 63.0593C458.469 62.9073 458.499 62.6923 458.65 62.5783C458.802 62.4643 459.018 62.4943 459.132 62.6443C459.264 62.8153 462.422 66.7703 470.11 61.4483C470.264 61.3403 470.481 61.3783 470.589 61.5353C470.697 61.6923 470.658 61.9063 470.502 62.0153C467.354 64.1953 464.877 64.8723 463.018 64.8723L463.019 64.8713Z" fill="#6E69E2"/>
<path d="M225.95 26.0286C225.95 26.0286 233.531 23.1426 238.255 29.7226C242.979 36.3036 242.424 64.7006 242.424 64.7006L221.887 65.8656L223.101 34.4276L225.949 26.0276L225.95 26.0286Z" fill="black"/>
<path d="M246.202 106.619L250.844 121.13L243.89 121.948L241.121 109.787L246.202 106.619Z" fill="#24305B"/>
<path d="M191.037 226.154L194.706 245.417L207.327 252.498L218.98 248.533L217.114 226.154H191.037Z" fill="#F48C6C"/>
<path d="M192.924 236.062H220.156L224.747 248.533L194.705 245.417L192.924 236.062Z" fill="white"/>
<path d="M222.162 248.533L214.99 262.232L210.452 270.909C210.452 270.909 165.701 272.609 163.432 270.909C161.163 269.209 161.163 264.399 163.432 262.411C165.701 260.431 192.326 245.984 192.326 245.984C192.326 245.984 192.326 242.015 193.983 241.633C195.649 241.251 206.679 245.984 206.679 245.984L219.554 241.616L222.163 248.533H222.162Z" fill="#0A84FF"/>
<path d="M214.99 262.23L210.452 270.907C210.452 270.907 165.701 272.607 163.432 270.907C161.163 269.207 161.163 264.397 163.432 262.409C163.432 262.409 194.144 264.678 211.226 262.409C212.841 262.196 214.073 262.145 214.991 262.23H214.99Z" fill="#FF793B"/>
<path d="M216.072 228.515L218.978 248.533H240.48L241.387 228.515H216.072Z" fill="#F79674"/>
<path d="M218.978 248.532L217.525 238.523H240.933L240.48 248.532H218.978Z" fill="white"/>
<path d="M247.088 267.228C247.088 269.684 245.584 273.083 240.29 274.214C235.004 275.353 208.637 273.318 207.778 272.375C207.319 271.882 205.745 270.772 205.575 268.971C205.388 267.059 205.864 265.13 206.918 263.524L218.237 246.264C218.237 246.264 221.356 243.06 227.423 243.621C233.491 244.19 236.533 246.264 236.533 246.264C236.533 246.264 239.346 243.417 240.672 244.369C241.768 245.159 245.456 258.671 246.689 264.663C246.944 265.895 247.088 266.813 247.088 267.229V267.228Z" fill="#0A84FF"/>
<path d="M195.008 111.544C195.008 111.544 187.323 139.955 184.053 164.006C180.782 188.057 180.594 230.352 182.739 231.804C184.884 233.256 208.418 231.801 208.418 231.801C208.418 231.801 216.9 235.113 231.54 234.723C242.165 234.441 250.804 231.893 250.804 231.893C250.804 231.893 249.155 125.04 241.127 108.533C234.845 95.6136 195.008 111.544 195.008 111.544Z" fill="#0A84FF"/>
<path d="M193.663 105.569V111.728C193.663 111.728 209.272 115.305 222.084 114.385C234.895 113.465 239.683 111.217 239.683 111.217L245.128 79.9456L228.761 56.9116L215.376 55.8276L182.74 79.4856L190.711 101.1L193.663 105.569Z" fill="#FF793B"/>
<path d="M204.037 97.4215L210.094 69.2166H231.153L226.406 99.0865L204.037 97.4215Z" fill="#E05146"/>
<path d="M226.393 128.695C223.413 130.553 219.872 128.695 219.872 128.695C219.872 128.695 210.831 115.322 206.288 97.7736C206.214 97.4976 206.15 97.2216 206.086 96.9456C205.194 93.4046 204.504 89.7076 204.118 85.9176C204.081 85.6696 204.063 85.4306 204.035 85.1816C203.621 80.7206 203.373 77.0056 203.262 73.9146H206.693L207.705 69.2146H210.161C210.253 70.6866 210.373 72.2586 210.538 73.9146C210.841 76.9776 211.283 80.3156 211.918 83.8016C212.792 88.5386 214.024 93.5416 215.781 98.4716C215.965 99.0046 216.158 99.5386 216.36 100.072C224.132 120.518 227.939 122.964 227.939 122.964C227.939 122.964 229.659 126.643 226.394 128.694L226.393 128.695Z" fill="#2D386B"/>
<path d="M228.757 69.2166L224.011 99.0885L215.78 98.4725L206.288 97.7736L201.643 97.4246L201.947 96.0266L204.117 85.9185L206.693 73.9156L207.704 69.2166H228.757Z" fill="#EF6354"/>
<path d="M193.463 93.5375L198.778 73.9165H216.797L211.703 97.5785L193.463 93.5375Z" fill="#6E69E2"/>
<path d="M214.042 73.9155L211.918 83.8025L208.956 97.5805L206.087 96.9455L201.948 96.0265L190.709 93.5335L196.025 73.9155H214.042Z" fill="white"/>
<path d="M194.188 90.6766C194.188 90.6766 200.946 89.9756 202.377 89.9756C203.808 89.9756 205.732 93.3336 205.732 93.3336L210.019 94.5716L205.119 108.357C205.119 108.357 194.924 109.682 190.71 104.78C189.129 102.94 194.188 90.6766 194.188 90.6766Z" fill="#EF8467"/>
<path d="M215.376 56.4426C215.376 56.4426 202.566 56.7496 189.587 67.5816C176.609 78.4136 170.988 89.1446 173.645 98.5456C176.302 107.948 192.959 108.357 192.959 108.357L197.864 88.9396L185.039 80.5596L215.375 56.4426H215.376Z" fill="#FF793B"/>
<path d="M222.289 93.9465C222.289 93.9465 218.303 91.8175 216.362 91.3095C214.523 90.8285 213.138 90.9195 213.138 90.9195L212.522 93.7805C212.522 93.7805 206.143 95.1725 201.647 97.4215C197.151 99.6695 197.968 101.713 197.968 101.713C197.968 101.713 195.107 103.553 196.333 104.779C197.559 106.005 202.26 104.779 202.26 104.779C202.26 104.779 196.333 107.027 198.786 108.356C201.239 109.685 206.642 109.276 206.642 109.276C206.642 109.276 218.407 111.32 222.291 107.232C226.174 103.144 222.291 93.9475 222.291 93.9475L222.289 93.9465Z" fill="#F79674"/>
<path d="M224.74 56.4426C224.74 56.4426 246.916 57.2596 258.055 75.1436C269.194 93.0276 260.405 109.174 242.931 112.444C225.456 115.714 216.361 110.911 216.361 110.911L220.525 90.5746L229.488 89.2457L238.251 78.5667L224.742 56.4417L224.74 56.4426Z" fill="#FF793B"/>
<path d="M210.16 69.2165H207.704L206.692 73.9165H203.261C202.983 66.6035 203.42 62.5895 203.858 60.4715C204.124 59.1865 205.139 58.1975 206.427 57.9475L210.021 57.2505C210.021 57.2505 209.717 62.0425 210.159 69.2165H210.16Z" fill="#2D386B"/>
<path d="M205.734 93.6785C205.713 93.6785 205.691 93.6765 205.669 93.6725L199.231 92.4455C199.044 92.4095 198.921 92.2295 198.957 92.0425C198.993 91.8545 199.173 91.7325 199.36 91.7685L205.798 92.9945C205.985 93.0305 206.108 93.2105 206.072 93.3975C206.04 93.5635 205.896 93.6785 205.734 93.6785Z" fill="black"/>
<path d="M212.521 94.1256C212.372 94.1256 212.235 94.0286 212.19 93.8776C212.136 93.6946 212.24 93.5036 212.423 93.4496L216.008 92.3886C216.189 92.3336 216.382 92.4387 216.436 92.6217C216.49 92.8047 216.386 92.9957 216.203 93.0497L212.618 94.1097C212.586 94.1197 212.553 94.1246 212.52 94.1246L212.521 94.1256Z" fill="black"/>
<path d="M198.238 101.733C198.088 101.733 197.95 101.634 197.906 101.484C197.853 101.301 197.959 101.11 198.142 101.057L206.511 98.6387C206.693 98.5857 206.885 98.6917 206.938 98.8747C206.991 99.0577 206.885 99.2487 206.702 99.3017L198.333 101.72C198.301 101.729 198.269 101.734 198.237 101.734L198.238 101.733Z" fill="black"/>
<path d="M201.646 105.267C201.497 105.267 201.359 105.169 201.315 105.019C201.261 104.836 201.366 104.645 201.549 104.591L207.272 102.916C207.454 102.862 207.646 102.967 207.7 103.15C207.754 103.333 207.649 103.524 207.466 103.578L201.743 105.253C201.711 105.262 201.678 105.267 201.646 105.267Z" fill="black"/>
<path d="M229.487 89.5905C229.326 89.5905 229.182 89.4775 229.149 89.3125C229.112 89.1265 229.233 88.9445 229.42 88.9075C229.541 88.8835 241.649 86.4995 248.653 86.4995C248.843 86.4995 248.998 86.6535 248.998 86.8445C248.998 87.0355 248.844 87.1895 248.653 87.1895C241.716 87.1895 229.675 89.5605 229.554 89.5845C229.532 89.5885 229.509 89.5905 229.487 89.5905Z" fill="white"/>
<path d="M239.683 87.9235C239.578 87.9235 239.476 87.8755 239.409 87.7875C239.314 87.6635 239.315 87.4905 239.411 87.3665C239.939 86.6875 244.649 80.7685 247.129 82.0935C247.595 82.3425 247.679 82.6795 247.667 82.9185C247.586 84.5645 241.636 87.1455 239.814 87.8975C239.772 87.9155 239.727 87.9235 239.683 87.9235ZM246.309 82.5885C244.91 82.5885 242.564 84.7365 240.855 86.7005C243.974 85.3085 246.942 83.6105 246.978 82.8855C246.978 82.8645 246.982 82.7985 246.805 82.7035C246.658 82.6255 246.492 82.5885 246.309 82.5885Z" fill="white"/>
<path d="M192.981 86.0925C192.891 86.0925 192.8 86.0575 192.732 85.9875C192.692 85.9455 188.648 81.7795 184.96 80.8955C184.775 80.8515 184.661 80.6655 184.705 80.4795C184.75 80.2945 184.935 80.1815 185.121 80.2245C189.006 81.1565 193.059 85.3315 193.229 85.5095C193.361 85.6465 193.357 85.8645 193.22 85.9975C193.153 86.0615 193.067 86.0925 192.981 86.0925Z" fill="white"/>
<path d="M189.01 82.5876C188.921 82.5876 188.833 82.5536 188.767 82.4876C188.497 82.2196 186.133 79.8296 186.217 78.2946C186.237 77.9296 186.392 77.6226 186.664 77.4056C186.934 77.1906 187.239 77.1336 187.523 77.2496C188.667 77.7096 189.211 81.1526 189.351 82.1966C189.371 82.3436 189.295 82.4856 189.163 82.5516C189.115 82.5756 189.062 82.5876 189.01 82.5876ZM187.228 77.8816C187.2 77.8816 187.158 77.8946 187.093 77.9466C186.974 78.0406 186.914 78.1636 186.905 78.3326C186.864 79.0756 187.736 80.2886 188.484 81.1626C188.177 79.5626 187.695 78.0626 187.265 77.8896C187.256 77.8866 187.245 77.8816 187.228 77.8816Z" fill="white"/>
<path d="M208.29 228.729C208.132 228.729 207.99 228.621 207.954 228.459C202.689 204.945 203.352 134.296 203.401 129.722L195.226 126.084C195.052 126.006 194.974 125.803 195.051 125.628C195.128 125.454 195.333 125.377 195.506 125.453L203.889 129.183C204.015 129.24 204.095 129.365 204.094 129.502C204.085 130.246 203.23 204.203 208.628 228.308C208.67 228.493 208.553 228.678 208.367 228.72C208.342 228.725 208.316 228.728 208.291 228.728L208.29 228.729Z" fill="#EF6354"/>
<path d="M228.613 223.333C219.767 223.333 212.656 222.546 212.529 222.531C212.34 222.509 212.204 222.339 212.225 222.149C212.247 221.96 212.421 221.832 212.607 221.845C212.833 221.871 235.254 224.354 249.993 220.438C250.177 220.391 250.366 220.499 250.415 220.682C250.464 220.867 250.354 221.055 250.17 221.104C243.621 222.844 235.579 223.333 228.613 223.333Z" fill="#EF6354"/>
<path d="M219.872 128.695C219.872 128.695 218.353 152.196 219.503 153.422C220.653 154.648 226.389 155.057 226.389 155.057L229.661 142.998L222.697 125.267L219.872 128.695Z" fill="#24305B"/>
<path d="M183.046 223.974C182.856 223.974 182.701 223.82 182.701 223.629C182.701 223.438 182.855 223.284 183.046 223.284C183.176 223.284 196.227 223.266 206.753 221.847C206.94 221.82 207.115 221.953 207.141 222.144C207.166 222.332 207.034 222.506 206.845 222.532C196.272 223.958 183.177 223.974 183.046 223.974Z" fill="#EF6354"/>
<path d="M219.871 125.32C219.871 125.32 221.881 141.773 222.903 141.773C223.925 141.773 258.466 135.437 259.283 134.62C260.1 133.803 257.239 116.839 255.809 116.43C254.378 116.021 222.086 121.948 222.086 121.948L219.872 125.32H219.871Z" fill="#2D386B"/>
<path d="M257.034 132.984C257.034 132.984 260.184 147.291 259.426 147.904C258.669 148.517 227.833 155.057 226.389 155.057C224.945 155.057 222.697 137.276 222.697 137.276L257.034 132.984Z" fill="#2D386B"/>
<path d="M231.153 140.709C230.992 140.709 230.848 140.596 230.816 140.433C230.778 140.247 230.899 140.064 231.086 140.027L256.558 134.895C256.749 134.855 256.927 134.978 256.964 135.165C257.002 135.352 256.881 135.534 256.695 135.571L231.223 140.703C231.2 140.708 231.177 140.71 231.154 140.71L231.153 140.709Z" fill="#6E69E2"/>
<path d="M223.877 127.281C222.796 127.281 221.916 126.401 221.916 125.319C221.916 124.237 222.796 123.357 223.877 123.357C224.958 123.357 225.839 124.237 225.839 125.319C225.839 126.401 224.959 127.281 223.877 127.281ZM223.877 124.046C223.176 124.046 222.605 124.617 222.605 125.318C222.605 126.019 223.176 126.59 223.877 126.59C224.578 126.59 225.149 126.019 225.149 125.318C225.149 124.617 224.578 124.046 223.877 124.046Z" fill="#6E69E2"/>
<path d="M247.088 267.227C247.088 269.683 245.584 273.082 240.29 274.213C235.004 275.352 209.145 275.054 206.801 272.68C206.328 272.201 205.745 270.771 205.575 268.969C205.388 267.057 205.864 265.128 206.918 263.522C206.918 263.522 208.686 266.343 225.58 266.93C236.415 267.304 243.214 265.791 246.689 264.661C246.944 265.893 247.088 266.811 247.088 267.227Z" fill="#FF793B"/>
<path d="M232.386 256.775C232.354 256.775 232.322 256.771 232.29 256.761C226.222 254.996 218.919 256.747 218.845 256.765C218.658 256.811 218.473 256.697 218.428 256.512C218.383 256.327 218.496 256.14 218.681 256.095C218.987 256.02 226.233 254.283 232.482 256.099C232.665 256.152 232.77 256.343 232.717 256.527C232.674 256.677 232.536 256.775 232.386 256.775Z" fill="white"/>
<path d="M233.437 252.826C233.405 252.826 233.373 252.822 233.341 252.812C227.274 251.051 219.969 252.798 219.896 252.816C219.711 252.86 219.524 252.748 219.479 252.563C219.434 252.377 219.547 252.191 219.732 252.146C220.038 252.071 227.284 250.336 233.533 252.15C233.716 252.203 233.821 252.394 233.768 252.577C233.724 252.728 233.587 252.826 233.437 252.826Z" fill="white"/>
<path d="M191.503 252.843H180.685C180.494 252.843 180.34 252.689 180.34 252.498C180.34 252.307 180.494 252.153 180.685 252.153H191.503C191.693 252.153 191.848 252.307 191.848 252.498C191.848 252.689 191.694 252.843 191.503 252.843Z" fill="white"/>
<path d="M194.705 248.877C194.669 248.875 188.736 248.262 188.736 248.262C188.547 248.242 188.409 248.073 188.428 247.884C188.448 247.694 188.614 247.55 188.807 247.576L194.74 248.189C194.929 248.209 195.067 248.378 195.048 248.567C195.03 248.745 194.88 248.877 194.705 248.877Z" fill="white"/>
<path d="M224.644 47.8035L224.923 56.7375C224.923 56.7375 223.489 58.7285 218.379 59.3385C214.572 59.7935 213.295 58.0965 213.295 58.0965L213.918 50.6595L223.103 48.2145L224.644 47.8025V47.8035Z" fill="#F79674"/>
<path d="M223.102 48.2166C223.088 48.4676 223.006 48.7656 222.875 49.1096C221.058 53.7526 215.731 54.9226 213.533 55.2046L213.916 50.6616L223.101 48.2166H223.102Z" fill="black"/>
<path d="M211.311 29.8435C211.311 29.8435 207.073 41.4875 209.084 47.8075C211.095 54.1275 216.628 52.8385 219.91 51.4315C223.192 50.0245 224.643 47.8045 224.643 47.8045C224.643 47.8045 227.812 48.7535 229.759 45.6145C231.705 42.4755 230.261 39.0565 228.443 38.3475C226.626 37.6385 224.57 39.0905 224.57 39.0905L226.077 35.6925C226.077 35.6925 218.319 19.2015 211.311 29.8415V29.8435Z" fill="#F79674"/>
<path d="M214.821 46.8714C214.426 46.8714 214.17 46.7784 214.143 46.7684C213.965 46.7014 213.875 46.5014 213.943 46.3234C214.01 46.1464 214.206 46.0564 214.385 46.1224C214.437 46.1424 215.637 46.5444 216.896 44.9814C217.016 44.8324 217.233 44.8104 217.381 44.9294C217.529 45.0494 217.553 45.2654 217.433 45.4144C216.454 46.6304 215.457 46.8714 214.821 46.8714Z" fill="black"/>
<path d="M225.151 45.0856C225.078 45.0856 225.004 45.0626 224.941 45.0146C224.79 44.8986 224.762 44.6826 224.878 44.5306L228.235 40.1636C228.35 40.0136 228.566 39.9826 228.719 40.1006C228.87 40.2166 228.898 40.4336 228.782 40.5846L225.425 44.9516C225.357 45.0396 225.255 45.0856 225.151 45.0856Z" fill="black"/>
<path d="M228.674 43.7205H226.417C226.227 43.7205 226.072 43.5665 226.072 43.3755C226.072 43.1845 226.226 43.0305 226.417 43.0305H228.674C228.864 43.0305 229.019 43.1845 229.019 43.3755C229.019 43.5665 228.865 43.7205 228.674 43.7205Z" fill="black"/>
<path d="M224.572 39.0925C224.572 39.0925 220.724 38.8885 218.153 35.7185C215.582 32.5485 214.291 29.2385 214.291 29.2385C214.291 29.2385 212.686 29.6035 211.713 31.0055C210.998 32.0365 210.17 33.5225 210.17 33.5225C210.17 33.5225 209.865 28.9095 211.98 26.5295C214.095 24.1495 216.038 24.8375 216.038 24.8375C216.038 24.8375 220.777 21.6875 225.95 26.0285C231.123 30.3705 229.187 38.8135 229.187 38.8135C229.187 38.8135 226.628 37.8965 224.572 39.0925Z" fill="black"/>
<path d="M210.038 34.3565C209.881 34.3565 209.738 34.2475 209.702 34.0875C209.66 33.9015 209.777 33.7165 209.962 33.6745L211.827 33.2535C212.012 33.2115 212.198 33.3275 212.24 33.5135C212.282 33.6995 212.165 33.8845 211.98 33.9265L210.115 34.3475C210.089 34.3535 210.064 34.3565 210.038 34.3565Z" fill="black"/>
<path d="M217.164 34.5025C217.138 34.5025 217.111 34.4995 217.085 34.4935L214.667 33.9265C214.481 33.8825 214.366 33.6965 214.41 33.5115C214.454 33.3255 214.643 33.2145 214.824 33.2545L217.242 33.8215C217.427 33.8645 217.543 34.0515 217.499 34.2355C217.461 34.3945 217.32 34.5025 217.164 34.5025Z" fill="black"/>
<path d="M222.388 63.4136C220.583 63.4136 218.237 60.8916 217.486 60.0276C216.396 60.8266 213.29 62.9966 212.094 62.6176C211.838 62.5366 211.658 62.3586 211.576 62.1026C211.071 60.5386 212.76 57.8956 212.954 57.6006C213.013 57.5106 213.11 57.4546 213.217 57.4466C213.329 57.4336 213.429 57.4806 213.5 57.5606C213.576 57.6456 215.396 59.6266 219.125 58.8766C222.937 58.1146 224.654 56.2326 224.671 56.2136C224.769 56.1036 224.927 56.0676 225.063 56.1256C225.199 56.1826 225.284 56.3196 225.273 56.4666C225.194 57.5886 224.694 63.1946 222.569 63.4056C222.51 63.4116 222.448 63.4146 222.387 63.4146L222.388 63.4136ZM218.126 59.7096C219.14 60.8456 221.221 62.8386 222.501 62.7176C223.517 62.6166 224.234 59.7176 224.505 57.2846C223.646 57.9586 221.95 59.0136 219.26 59.5516C218.863 59.6306 218.484 59.6816 218.125 59.7086L218.126 59.7096ZM213.313 58.3296C212.774 59.2436 211.933 60.9696 212.231 61.8906C212.245 61.9326 212.259 61.9466 212.301 61.9596C212.937 62.1556 215.121 60.8676 216.762 59.6996C214.979 59.5286 213.837 58.7676 213.313 58.3296Z" fill="white"/>
<path d="M211.854 44.5446C211.701 44.5446 211.561 44.4416 211.521 44.2866C210.844 41.7026 212.537 39.6566 212.609 39.5706C212.732 39.4256 212.948 39.4046 213.094 39.5296C213.239 39.6516 213.258 39.8686 213.136 40.0146C213.12 40.0336 211.603 41.8806 212.187 44.1126C212.235 44.2966 212.125 44.4856 211.941 44.5336C211.912 44.5416 211.882 44.5446 211.854 44.5446Z" fill="black"/>
<path d="M210.322 39.9316C210.296 39.9316 210.269 39.9286 210.242 39.9216C210.057 39.8776 209.942 39.6916 209.986 39.5066L210.439 37.5966L209.886 37.0026C209.756 36.8626 209.764 36.6446 209.903 36.5146C210.043 36.3856 210.261 36.3926 210.39 36.5316L211.069 37.2616C211.148 37.3456 211.179 37.4636 211.152 37.5756L210.656 39.6646C210.618 39.8236 210.477 39.9296 210.321 39.9306L210.322 39.9316Z" fill="black"/>
<path d="M215.972 40.0304C215.952 40.0304 215.932 40.0294 215.912 40.0254C215.724 39.9924 215.599 39.8134 215.632 39.6254L215.973 37.6974L215.124 36.9234C214.983 36.7954 214.973 36.5764 215.102 36.4364C215.232 36.2954 215.45 36.2864 215.589 36.4144L216.578 37.3164C216.665 37.3964 216.706 37.5154 216.685 37.6314L216.311 39.7464C216.281 39.9134 216.136 40.0304 215.972 40.0304Z" fill="black"/>
<path d="M70.4909 136.496C70.4909 136.496 43.5969 135.348 42.5619 112.147C41.5269 88.9457 44.9919 59.8507 61.4019 55.5587C77.8119 51.2667 89.5149 54.7357 89.5149 54.7357L70.4909 136.496Z" fill="#FCAD4F"/>
<path d="M130.939 105.887C130.939 105.887 141.369 104.332 142.582 106.897C143.795 109.461 135.077 110.448 135.077 110.448L140.568 116.541C140.568 116.541 145.974 123.8 145.89 125.691C145.806 127.582 142.141 125.936 142.141 125.936C142.141 125.936 146.114 131.057 142.977 131.334C139.84 131.611 136.687 128.275 136.687 128.275C136.687 128.275 140.878 133.162 137.076 133.16C135.02 133.159 122.678 123.618 119.71 115.124C116.742 106.631 124.504 107.482 124.504 107.482L130.938 105.887H130.939Z" fill="#F79674"/>
<path d="M134.015 125.914C133.977 125.914 133.938 125.908 133.9 125.894C133.72 125.83 133.626 125.634 133.69 125.454L136.991 116.085C137.054 115.905 137.25 115.811 137.431 115.874C137.611 115.937 137.705 116.134 137.641 116.314L134.34 125.682C134.29 125.825 134.157 125.914 134.015 125.914Z" fill="black"/>
<path d="M129.461 115.14C127.145 115.14 125.679 113.168 125.617 113.082C125.505 112.929 125.539 112.713 125.692 112.601C125.847 112.489 126.062 112.522 126.174 112.675C126.188 112.694 127.571 114.561 129.585 114.447C131.332 114.383 133.082 112.976 134.785 110.263C134.886 110.102 135.098 110.054 135.261 110.155C135.422 110.256 135.471 110.469 135.369 110.631C133.535 113.552 131.595 115.068 129.603 115.137C129.555 115.139 129.508 115.14 129.461 115.14Z" fill="black"/>
<path d="M130.619 104C130.619 104 121.26 94.7477 113.686 83.2457C106.112 71.7437 104.819 61.9357 101.075 57.9187C97.3315 53.9017 104.935 115.108 104.935 115.108C104.935 115.108 111.746 119.156 117.571 122.253C121.295 124.233 122.317 124.621 122.317 124.621L130.62 104.001L130.619 104Z" fill="#342E37"/>
<path d="M89.0302 235.769L89.0652 247.895L65.6172 245.464L65.6692 235.645L89.0302 235.769Z" fill="#F79674"/>
<path d="M125.147 234.379L125.185 246.504L101 244.07L101.052 234.251L125.147 234.379Z" fill="#F79674"/>
<path d="M106.992 105.965C106.992 105.965 131.376 154.89 134.269 165.044C137.162 175.198 132.15 239.37 132.15 239.37L97.442 239.585L95.213 205.391C95.213 205.391 98.896 190.927 99.393 186.584C99.89 182.241 95.402 169.831 95.402 169.831L93.582 125.431L106.276 114.877L106.991 105.964L106.992 105.965Z" fill="#37D3ED"/>
<path d="M126.927 246.514C126.927 246.514 156.125 262.275 157.557 266.229C158.989 270.183 154.862 271.81 152.93 272.015C150.997 272.219 102.794 269.41 102.794 269.41L98.5273 254.798C98.5273 254.798 99.0523 242.366 99.5373 241.992C100.022 241.618 126.01 241.687 126.01 241.687L126.928 246.516L126.927 246.514Z" fill="#2D386B"/>
<path d="M64.5886 120.914C64.5886 120.914 59.9906 179.713 59.0356 208.097C58.0816 236.48 58.8716 238.982 58.8716 238.982C58.8716 238.982 76.2696 240.633 86.8556 240.11L97.4416 239.587L96.4116 131.032L111.287 121.398L106.992 105.966L67.4896 106.985L64.5886 120.914Z" fill="#37D3ED"/>
<path d="M96.8197 174.411C96.6237 174.408 96.4717 174.251 96.4747 174.06L97.1156 133.666C97.1176 133.539 97.1886 133.424 97.3016 133.365L108.26 127.693C108.429 127.605 108.637 127.672 108.725 127.841C108.813 128.01 108.747 128.218 108.578 128.306L97.8027 133.883L97.1647 174.071C97.1617 174.259 97.0077 174.41 96.8197 174.41V174.411Z" fill="#FCAD4F"/>
<path d="M99.5989 185.415C99.4819 185.415 99.3719 185.356 99.3079 185.255C99.2309 185.135 99.2369 184.98 99.3219 184.865C99.5159 184.602 104.114 178.434 107.446 178.289C108.226 178.251 108.866 178.532 109.38 179.113C109.987 179.799 109.953 180.424 109.817 180.828C108.92 183.491 100.611 185.22 99.6659 185.408C99.6439 185.413 99.6209 185.415 99.5989 185.415ZM107.569 178.975C107.538 178.975 107.508 178.976 107.476 178.977C105.11 179.081 101.786 182.887 100.458 184.532C103.33 183.872 108.581 182.335 109.163 180.607C109.236 180.39 109.285 180.047 108.863 179.57C108.51 179.171 108.086 178.975 107.569 178.975Z" fill="#FCAD4F"/>
<path d="M90.0726 241.431C90.0726 241.431 91.5196 244.166 93.8176 246.337C99.8746 252.061 111.085 261.561 111.603 264.381C112.317 268.272 110.096 270.195 108.711 270.741C107.326 271.287 80.0316 270.865 72.5326 270.549C65.0336 270.233 63.7366 265.205 63.0396 260.801C62.3426 256.397 65.1876 241.325 65.1876 241.325L90.0726 241.431Z" fill="#2D386B"/>
<path d="M109.927 110.314C109.927 110.314 108.288 63.5826 101.075 58.0976C93.8615 52.6126 67.7785 54.8816 61.3975 56.3976C55.0165 57.9136 66.2895 116.786 66.2895 116.786C66.2895 116.786 93.3765 117.406 109.927 110.314Z" fill="#342E37"/>
<path d="M74.0373 117.831L78.3723 123.127L67.1143 133.911L61.1562 129.705L74.0373 117.831Z" fill="#F79674"/>
<path d="M61.4884 131.206C61.4884 131.206 43.3003 119.378 38.7743 104.299C34.2483 89.2196 43.5743 69.1876 50.2483 62.4506C56.9223 55.7136 65.0784 55.7906 65.0784 55.7906L63.9173 95.9336L77.0293 116.85L61.4884 131.206Z" fill="#342E37"/>
<path d="M67.113 134.256C67.023 134.256 66.934 134.222 66.866 134.152C66.733 134.015 66.735 133.797 66.871 133.664L79.795 121.042C79.931 120.908 80.149 120.911 80.283 121.048C80.416 121.185 80.414 121.403 80.278 121.536L67.354 134.158C67.287 134.223 67.2 134.256 67.113 134.256Z" fill="#FCAD4F"/>
<path d="M63.1013 95.9298C63.1013 95.9298 68.4163 83.2948 70.8453 69.9828C73.2733 56.6708 73.5903 54.1458 73.5903 54.1458L61.4023 55.5588C61.4023 55.5588 65.9693 79.6398 63.1013 95.9298Z" fill="#FCAD4F"/>
<path d="M88.8516 54.8596C88.8516 54.8596 94.9096 60.9586 100.196 72.5426C105.482 84.1266 107.855 90.7196 107.855 90.7196C107.855 90.7196 103.867 61.4626 99.1896 57.3016C95.7246 54.2196 88.8516 54.8596 88.8516 54.8596Z" fill="#FCAD4F"/>
<path d="M154.427 265.437C154.411 265.437 111.705 263.539 111.705 263.539C111.515 263.53 111.367 263.369 111.375 263.179C111.383 262.989 111.551 262.838 111.735 262.85L154.441 264.748C154.631 264.757 154.779 264.918 154.771 265.108C154.763 265.293 154.61 265.437 154.427 265.437Z" fill="#6E69E2"/>
<path d="M83.3691 262.516C75.6891 262.516 69.1131 262.387 68.3311 261.962C66.4761 260.955 64.3441 259.142 64.2541 259.066C64.1091 258.942 64.0912 258.724 64.2162 258.58C64.3402 258.434 64.5581 258.42 64.7021 258.541C64.7231 258.56 66.8702 260.385 68.6612 261.357C69.9582 262.058 93.5962 261.845 109.17 261.531C109.326 261.538 109.518 261.678 109.521 261.869C109.525 262.059 109.374 262.217 109.183 262.221C106.865 262.268 94.0501 262.517 83.3701 262.517L83.3691 262.516Z" fill="#6E69E2"/>
<path d="M71.9772 108.024C71.8662 108.024 71.7562 107.971 71.6902 107.871C71.5912 107.723 61.6842 93.0036 56.0662 90.7086C55.8902 90.6366 55.8052 90.4356 55.8772 90.2586C55.9492 90.0816 56.1512 89.9966 56.3272 90.0696C62.1392 92.4446 71.8522 106.874 72.2632 107.487C72.3692 107.645 72.3262 107.86 72.1682 107.966C72.1092 108.006 72.0432 108.024 71.9772 108.024Z" fill="#6E69E2"/>
<path d="M63.1021 96.2737C62.9821 96.2737 62.8681 96.2117 62.8041 96.1037C62.5791 95.7187 57.2891 86.6317 58.3311 83.6017C58.4931 83.1297 58.7911 82.8057 59.2161 82.6367C59.6341 82.4697 60.0571 82.5107 60.4351 82.7557C62.8531 84.3167 63.3931 94.7317 63.4461 95.9137C63.4531 96.0727 63.3511 96.2147 63.1991 96.2597C63.1671 96.2697 63.1341 96.2737 63.1011 96.2737H63.1021ZM59.7221 83.2247C59.6421 83.2247 59.5591 83.2427 59.4721 83.2767C59.2361 83.3707 59.0811 83.5457 58.9841 83.8257C58.3131 85.7787 60.9641 91.3227 62.6671 94.4527C62.3961 90.7377 61.6181 84.3387 60.0621 83.3337C59.9481 83.2597 59.8371 83.2237 59.7231 83.2237L59.7221 83.2247Z" fill="#6E69E2"/>
<path d="M109.927 110.659C109.755 110.659 109.607 110.531 109.585 110.356L107.764 95.5196C107.741 95.3306 107.875 95.1586 108.064 95.1356C108.248 95.1116 108.425 95.2466 108.448 95.4356L110.269 110.271C110.292 110.46 110.158 110.632 109.969 110.655C109.955 110.657 109.941 110.659 109.927 110.659Z" fill="#6E69E2"/>
<path d="M114.019 95.2066C113.576 95.2066 113.339 95.0016 113.216 94.8126C112.301 93.4146 115.592 88.1666 116.261 87.1286C116.341 87.0036 116.493 86.9446 116.636 86.9816C116.78 87.0176 116.884 87.1426 116.895 87.2906C116.917 87.5916 117.406 94.6786 114.294 95.1836C114.195 95.1996 114.103 95.2066 114.019 95.2066ZM116.249 88.4516C114.686 91.0386 113.4 93.8346 113.793 94.4356C113.844 94.5136 113.976 94.5336 114.183 94.5026C115.921 94.2206 116.265 90.6896 116.249 88.4516Z" fill="#6E69E2"/>
<path d="M77.3642 47.2446L77.0762 55.4706C77.0762 55.4706 78.5152 57.8966 83.4402 58.4866C87.1092 58.9256 88.4302 58.1676 88.4302 58.1676L88.0632 53.9806L87.7002 49.8976L78.8492 47.6276L77.3642 47.2446Z" fill="#F79674"/>
<path d="M78.8457 47.6487C78.8557 47.9007 78.9297 48.1997 79.0507 48.5437C80.7327 53.1947 86.0097 54.4597 88.1287 54.7287L87.6797 50.0447L78.8457 47.6487Z" fill="black"/>
<path d="M91.2437 29.7096C91.2437 29.7096 95.2987 42.3146 93.1517 48.6586C91.0047 55.0036 85.5337 52.8036 82.0887 51.3726C78.6437 49.9406 77.1287 47.7006 77.1287 47.7006C77.1287 47.7006 73.7897 48.6386 71.7587 45.4716C69.7277 42.3046 71.2646 38.8746 73.1796 38.1716C75.0946 37.4686 77.2497 38.9396 77.2497 38.9396L75.6817 35.5146C75.6817 35.5146 83.9257 18.9726 91.2437 29.7096Z" fill="#F79674"/>
<path d="M90.1079 43.1487C90.0669 43.1487 90.0259 43.1417 89.9859 43.1267C89.8079 43.0597 89.7179 42.8607 89.7849 42.6827C90.5439 40.6647 89.0859 39.1997 89.0229 39.1377C88.8879 39.0047 88.8849 38.7857 89.0179 38.6507C89.1499 38.5147 89.3679 38.5107 89.5039 38.6447C89.5799 38.7187 91.3509 40.4787 90.4299 42.9267C90.3779 43.0647 90.2469 43.1507 90.1069 43.1507L90.1079 43.1487Z" fill="black"/>
<path d="M76.4615 44.2647C76.3625 44.2647 76.2655 44.2227 76.1965 44.1417L73.2815 40.6557C73.1595 40.5097 73.1785 40.2917 73.3245 40.1697C73.4705 40.0487 73.6875 40.0677 73.8105 40.2127L76.7255 43.6987C76.8475 43.8447 76.8275 44.0627 76.6815 44.1847C76.6175 44.2387 76.5385 44.2647 76.4605 44.2647H76.4615Z" fill="black"/>
<path d="M73.2195 43.1837C73.0435 43.1837 72.8925 43.0497 72.8765 42.8697C72.8585 42.6797 72.9995 42.5127 73.1885 42.4957L75.3615 42.2987C75.5455 42.2777 75.7185 42.4207 75.7355 42.6107C75.7525 42.8007 75.6125 42.9677 75.4235 42.9847L73.2505 43.1817C73.2395 43.1827 73.2295 43.1837 73.2185 43.1837H73.2195Z" fill="black"/>
<path d="M85.047 39.9937C84.867 39.9937 84.716 39.8537 84.703 39.6717L84.536 37.1687C84.523 36.9787 84.667 36.8137 84.857 36.8017C85.046 36.7927 85.211 36.9327 85.224 37.1227L85.391 39.6257C85.404 39.8157 85.26 39.9797 85.07 39.9927C85.062 39.9927 85.054 39.9937 85.047 39.9937Z" fill="black"/>
<path d="M91.4245 39.8796C91.2475 39.8796 91.0965 39.7446 91.0815 39.5646L90.8645 37.0496C90.8485 36.8596 90.9885 36.6925 91.1785 36.6765C91.3735 36.6665 91.5355 36.8006 91.5525 36.9906L91.7695 39.5056C91.7855 39.6956 91.6445 39.8625 91.4555 39.8785C91.4455 39.8795 91.4355 39.8796 91.4255 39.8796H91.4245Z" fill="black"/>
<path d="M83.2797 35.4298C83.2197 35.4298 83.1597 35.4148 83.1047 35.3818C82.9407 35.2848 82.8867 35.0728 82.9837 34.9088C83.8427 33.4608 85.7177 33.9647 85.7977 33.9867C85.9807 34.0377 86.0877 34.2277 86.0367 34.4107C85.9857 34.5937 85.7957 34.7018 85.6127 34.6518C85.5547 34.6348 84.1647 34.2687 83.5777 35.2607C83.5137 35.3697 83.3987 35.4298 83.2807 35.4298H83.2797Z" fill="black"/>
<path d="M92.6515 35.3536C92.5545 35.3536 92.4575 35.3126 92.3885 35.2326C92.3515 35.1896 91.4725 34.1866 90.2645 34.5426C90.0795 34.5966 89.8895 34.4916 89.8365 34.3096C89.7825 34.1266 89.8865 33.9356 90.0695 33.8816C91.7115 33.3946 92.8665 34.7296 92.9145 34.7866C93.0375 34.9316 93.0185 35.1476 92.8745 35.2716C92.8105 35.3266 92.7305 35.3536 92.6515 35.3536Z" fill="black"/>
<path d="M88.2133 46.5596C88.1233 46.5576 86.2223 46.4806 84.8243 44.6466C84.7093 44.4956 84.7383 44.2786 84.8893 44.1636C85.0403 44.0476 85.2563 44.0766 85.3723 44.2286C86.5633 45.7916 88.1562 45.8676 88.2232 45.8706C88.4132 45.8776 88.5622 46.0366 88.5562 46.2266C88.5502 46.4126 88.3973 46.5596 88.2123 46.5596H88.2133Z" fill="black"/>
<path d="M73.7454 38.2296C75.6134 38.0466 77.2494 38.9386 77.2974 39.3556C77.4634 40.8026 79.0684 41.3866 79.2494 39.7726C79.5684 36.9226 77.4144 36.1916 77.4144 36.1916C77.4144 36.1916 80.7984 36.0436 83.9434 33.1506C87.0884 30.2576 87.9294 29.0136 87.9294 29.0136L92.0224 32.0496C92.0224 32.0496 97.2794 22.8846 85.3954 22.8196C73.5114 22.7546 72.7314 33.1276 72.7314 33.1276C72.7314 33.1276 69.3964 33.8096 69.4984 35.7176C69.5994 37.6256 71.4674 39.7546 71.4674 39.7546C71.4674 39.7546 71.8934 38.4106 73.7464 38.2286L73.7454 38.2296Z" fill="black"/>
<path d="M85.9683 58.9477C83.2333 58.9477 79.4383 58.3577 76.3653 55.6637C76.2223 55.5377 76.2083 55.3207 76.3333 55.1767C76.4593 55.0347 76.6773 55.0197 76.8203 55.1447C81.9023 59.5987 89.3453 57.9357 89.4213 57.9187C89.6053 57.8787 89.7923 57.9907 89.8353 58.1767C89.8783 58.3627 89.7633 58.5477 89.5773 58.5907C89.4423 58.6227 87.9963 58.9467 85.9693 58.9467L85.9683 58.9477Z" fill="#6E69E2"/>
<path d="M130.967 251.307C130.78 251.307 130.627 251.159 130.622 250.97C130.618 250.78 130.768 250.622 130.958 250.617C131.039 250.615 139.026 250.392 141.413 247.652C141.915 247.075 142.119 246.444 142.036 245.723C141.988 245.297 141.797 245.17 141.658 245.112C140.246 244.517 135.478 247.563 132.807 249.626C132.659 249.739 132.446 249.714 132.328 249.57C132.21 249.424 132.229 249.212 132.371 249.09C135.469 246.445 140.032 241.927 139.909 240.321C139.897 240.166 139.838 240.066 139.711 239.988C138.299 239.108 133.426 245.044 130.418 249.532C130.313 249.689 130.098 249.734 129.94 249.626C129.782 249.521 129.739 249.306 129.845 249.148C131.116 247.251 137.586 237.862 140.073 239.401C140.386 239.595 140.568 239.895 140.596 240.269C140.703 241.663 138.469 244.241 136.356 246.347C138.428 245.089 140.759 243.987 141.924 244.477C142.241 244.611 142.636 244.922 142.719 245.646C142.823 246.557 142.557 247.385 141.929 248.106C139.343 251.075 131.311 251.299 130.971 251.307H130.963H130.967Z" fill="#6E69E2"/>
<path d="M83.9142 252.832C83.2532 252.832 82.7732 252.819 82.5842 252.813C82.3942 252.807 82.2442 252.648 82.2502 252.458C82.2562 252.269 82.4262 252.132 82.6052 252.124C85.0802 252.205 91.7342 252.068 92.8002 250.551C92.9382 250.355 92.9562 250.146 92.8552 249.893C92.6772 249.445 92.3842 249.165 91.9592 249.038C90.3842 248.561 87.4152 250.301 86.4042 251.009C86.2492 251.117 86.0342 251.08 85.9252 250.926C85.8162 250.771 85.8522 250.556 86.0072 250.446C86.0422 250.421 89.5522 247.904 89.8522 245.848C89.9162 245.412 89.8242 245.041 89.5712 244.717C89.4172 244.52 89.2332 244.445 89.0012 244.445C87.2902 244.529 84.0152 249.128 82.8972 250.892C82.7952 251.052 82.5812 251.102 82.4212 250.998C82.2602 250.896 82.2132 250.683 82.3142 250.522C82.7452 249.841 86.5922 243.872 88.9672 243.755C89.4242 243.738 89.8232 243.918 90.1152 244.292C90.4852 244.766 90.6262 245.323 90.5352 245.947C90.3882 246.955 89.6332 248.011 88.8082 248.896C89.9352 248.42 91.1952 248.088 92.1582 248.375C92.7902 248.564 93.2412 248.989 93.4992 249.638C93.6852 250.106 93.6392 250.559 93.3672 250.947C92.1882 252.627 86.5832 252.832 83.9162 252.832H83.9142Z" fill="#6E69E2"/>
<path d="M96.4954 235.173C96.3034 235.173 96.1494 235.017 96.1504 234.826L96.3444 198.371C96.3444 198.181 96.4994 198.028 96.6894 198.028C96.8814 198.029 97.0354 198.184 97.0344 198.375L96.8404 234.83C96.8404 235.019 96.6854 235.173 96.4954 235.173Z" fill="#FCAD4F"/>
</svg>
