<svg width="1106" height="600" viewBox="0 0 1106 600" fill="none" xmlns="http://www.w3.org/2000/svg">
<g clip-path="url(#clip0_1913_2158)">
<path d="M992.769 439.281H726.434C721.671 439.281 717.796 435.405 717.796 430.643V42.7001C717.796 37.9376 721.671 34.0623 726.434 34.0623L992.769 34.0623C997.531 34.0623 1001.41 37.9362 1001.41 42.7001V430.641C1001.41 435.405 997.531 439.279 992.769 439.279V439.281ZM726.434 34.4306C721.873 34.4306 718.164 38.1395 718.164 42.7001V430.641C718.164 435.202 721.875 438.911 726.434 438.911H992.769C997.329 438.911 1001.04 435.2 1001.04 430.641V42.7001C1001.04 38.141 997.328 34.4306 992.769 34.4306L726.434 34.4306Z" fill="#E0E0E0"/>
<path d="M685.643 439.281H419.307C414.544 439.281 410.669 435.405 410.669 430.643V42.7001C410.669 37.9376 414.543 34.0623 419.307 34.0623L685.643 34.0623C690.406 34.0623 694.281 37.9362 694.281 42.7001V430.641C694.281 435.405 690.406 439.279 685.643 439.279V439.281ZM419.307 34.4306C414.748 34.4306 411.037 38.1395 411.037 42.7001V430.641C411.037 435.202 414.748 438.911 419.307 438.911H685.643C690.204 438.911 693.913 435.2 693.913 430.641V42.7001C693.913 38.141 690.202 34.4306 685.643 34.4306L419.307 34.4306Z" fill="#E0E0E0"/>
<path d="M378.715 439.281H112.38C107.618 439.281 103.742 435.405 103.742 430.643L103.742 42.7001C103.742 37.9376 107.616 34.0623 112.38 34.0623L378.715 34.0623C383.477 34.0623 387.353 37.9362 387.353 42.7001V430.641C387.353 435.405 383.477 439.279 378.715 439.279V439.281ZM112.38 34.4306C107.821 34.4306 104.111 38.1395 104.111 42.7001L104.111 430.641C104.111 435.202 107.821 438.911 112.38 438.911H378.715C383.276 438.911 386.984 435.2 386.984 430.641V42.7001C386.984 38.141 383.276 34.4306 378.715 34.4306L112.38 34.4306Z" fill="#E0E0E0"/>
<path d="M1105.15 529.268L0 529.268L0 529.444L1105.15 529.444V529.268Z" fill="#E0E0E0"/>
<path d="M1045.26 572.554H963.139V573.174H1045.26V572.554Z" fill="#EBEBEB"/>
<path d="M751.016 579.282H729.463V579.903H751.016V579.282Z" fill="#EBEBEB"/>
<path d="M166.981 553.697H59.8916V554.318H166.981V553.697Z" fill="#EBEBEB"/>
<path d="M204.753 553.697H189.053V554.318H204.753V553.697Z" fill="#EBEBEB"/>
<path d="M488.032 564.165H255.784V564.786H488.032V564.165Z" fill="#EBEBEB"/>
<path d="M592.862 48.9345C587.858 50.2194 583.664 53.0383 580.611 56.7413L580.605 56.7177C575.137 61.0602 572.007 60.6019 570.662 59.9889L558.971 14.4524C558.084 10.9984 554.565 8.91781 551.113 9.80488L424.567 42.2933C421.113 43.1804 419.033 46.6992 419.92 50.1516L431.683 95.9711C428.524 99.6225 421.359 97.1529 421.359 97.1529V97.1558C417.08 95.613 412.307 95.2903 407.567 96.5075C394.998 99.7345 387.424 112.539 390.651 125.109C393.878 137.678 406.683 145.252 419.254 142.025C424.258 140.74 428.451 137.921 431.505 134.22L431.511 134.243C436.039 130.648 438.959 130.347 440.598 130.698L452.408 176.697C453.295 180.151 456.814 182.232 460.266 181.345L586.812 148.856C590.266 147.969 592.347 144.452 591.459 140.998L579.857 95.8031C582.604 90.995 590.758 93.808 590.758 93.808V93.805C595.037 95.3493 599.81 95.6705 604.55 94.4534C617.12 91.2263 624.693 78.4213 621.466 65.8521C618.239 53.2829 605.434 45.7089 592.864 48.936L592.862 48.9345Z" fill="#EBEBEB"/>
<path d="M431.525 40.506C430.775 40.699 434.132 60.2985 460.122 64.1326C486.112 67.9667 548.325 107.944 540.228 160.815C540.228 160.815 558.227 156.194 557.427 156.399C556.628 156.604 556.702 87.491 488.244 67.5409C419.786 47.5908 476.464 28.9683 476.464 28.9683L431.525 40.506Z" fill="#F0F0F0"/>
<path d="M724.507 357.614C728.204 362.075 733.068 364.978 738.283 366.302L738.262 366.32C745.28 369.789 746.315 373.179 746.335 374.837L705.756 408.475C702.678 411.025 702.252 415.589 704.802 418.667L798.283 531.439C800.834 534.518 805.398 534.943 808.476 532.393L849.307 498.546C854.521 500.003 855.445 508.448 855.445 508.448L855.448 508.445C855.929 513.524 857.886 518.517 861.387 522.741C870.672 533.943 887.28 535.496 898.482 526.211C909.684 516.927 911.237 500.318 901.951 489.117C898.254 484.656 893.39 481.753 888.175 480.429L888.195 480.411C882.384 477.539 880.682 474.722 880.253 472.893L921.247 438.912C924.325 436.361 924.751 431.798 922.2 428.72L842.371 332.417L828.719 315.949C826.168 312.871 821.605 312.445 818.527 314.995L778.251 348.381C772.06 347.896 771.014 338.282 771.014 338.282L771.011 338.285C770.529 333.205 768.572 328.213 765.071 323.988C755.787 312.787 739.179 311.233 727.977 320.518C716.775 329.803 715.222 346.411 724.507 357.613V357.614Z" fill="#EBEBEB"/>
<path d="M837.443 326.471C837.443 326.471 819.779 347.385 816.603 364.848C813.429 382.312 816.603 455.327 799.37 469.385C782.137 483.444 760.929 486.374 760.929 486.374L775.788 500.898C775.788 500.898 808.894 484.351 821.139 463.489C833.384 442.628 813.883 380.951 827.034 369.613C840.186 358.276 861.459 355.442 861.459 355.442L837.443 326.471Z" fill="#F5F5F5"/>
<path d="M216.208 514.282C219.599 513.613 222.505 511.889 224.684 509.533L224.687 509.549C228.76 506.674 230.849 507.35 231.613 507.832L237.675 538.558C238.136 540.898 240.407 542.42 242.747 541.959L328.468 525.047C330.808 524.586 332.33 522.316 331.869 519.976L325.817 489.3C325.11 488.819 323.02 488.021 318.831 490.976L318.828 490.96C316.649 493.316 313.743 495.04 310.352 495.709C301.838 497.389 293.573 491.849 291.893 483.335C290.214 474.821 295.754 466.556 304.268 464.876C307.479 464.242 310.653 464.637 313.453 465.831V465.828C313.453 465.828 319.068 468.12 320.95 464.641L314.956 434.256C314.494 431.916 312.224 430.394 309.884 430.855L272.879 438.155C269.367 436.283 271.687 430.634 271.687 430.634C272.879 427.834 273.274 424.66 272.64 421.449C270.96 412.935 262.697 407.395 254.181 409.075C245.666 410.754 240.127 419.018 241.807 427.534C242.474 430.92 244.186 433.834 246.539 436.012C249.534 440.255 248.676 442.344 248.199 443.025L224.164 447.767C221.824 448.228 220.302 450.499 220.763 452.838L226.769 483.285C224.849 486.663 219.309 484.402 219.309 484.402V484.404C216.509 483.212 213.335 482.816 210.124 483.45C201.61 485.129 196.07 493.393 197.749 501.909C199.429 510.423 207.693 515.963 216.208 514.283V514.282Z" fill="#F0F0F0"/>
<path d="M280.282 436.694C280.282 436.694 282.69 456.117 271.772 470.281C260.855 484.444 239.863 528.227 246.818 541.156L255.904 539.364C255.904 539.364 246.102 528.118 259.675 500.97C273.247 473.821 292.907 461.286 290.161 434.746L280.284 436.696L280.282 436.694Z" fill="#F5F5F5"/>
<path d="M952.544 144.194C950.503 142.683 948.131 141.959 945.773 141.941L945.781 141.931C942.204 141.141 941.538 139.672 941.422 139.019L955.107 120.526C956.148 119.117 955.852 117.132 954.443 116.089L902.854 77.91C901.446 76.8682 899.46 77.1644 898.418 78.5731L884.756 97.0349C884.844 97.6568 885.445 99.1863 889.122 99.9982L889.114 100.009C891.472 100.026 893.846 100.751 895.885 102.262C901.01 106.054 902.089 113.282 898.297 118.407C894.505 123.532 887.277 124.611 882.153 120.819C880.222 119.388 878.866 117.47 878.128 115.36C878.128 115.36 876.595 111.178 873.773 111.876L860.241 130.163C859.199 131.572 859.495 133.556 860.904 134.6L883.173 151.081C883.895 153.913 879.679 155.449 879.679 155.449C877.569 156.187 875.651 157.544 874.221 159.476C870.429 164.599 871.509 171.828 876.634 175.62C881.759 179.413 888.986 178.333 892.778 173.208C894.286 171.17 895.02 168.799 895.04 166.443C895.862 162.719 897.421 162.15 898.026 162.072L912.491 172.777C913.898 173.819 915.884 173.523 916.926 172.114L930.485 153.791C933.27 153.162 934.782 157.289 934.782 157.289C935.52 159.398 936.876 161.318 938.808 162.747C943.931 166.54 951.16 165.46 954.952 160.335C958.745 155.211 957.665 147.982 952.54 144.189L952.544 144.194Z" fill="#F0F0F0"/>
<path d="M872.71 143.339C872.71 143.339 910.973 147.841 915.827 132.671C920.681 117.502 901.068 112.52 919.369 90.1328L924.537 93.9566C924.537 93.9566 914.007 92.0175 915.827 107.186C917.647 122.355 927.659 129.895 918.861 140.08C910.063 150.266 883.173 151.081 883.173 151.081L872.711 143.338L872.71 143.339Z" fill="#F5F5F5"/>
<path d="M232.969 228.363C229.869 224.618 225.787 222.178 221.41 221.061L221.427 221.046C215.14 217.934 214.574 214.895 214.658 213.627L248.612 185.521C251.198 183.381 251.559 179.55 249.418 176.965L171.009 82.2378C168.869 79.6517 165.038 79.2907 162.454 81.4317L128.553 109.492C128.433 110.69 128.845 113.811 135.313 117.012L135.295 117.026C139.673 118.142 143.753 120.582 146.855 124.329C154.642 133.738 153.329 147.679 143.919 155.468C134.509 163.257 120.57 161.943 112.781 152.533C109.844 148.984 108.204 144.792 107.802 140.528L107.799 140.531C107.799 140.531 106.87 132.045 101.302 132.048L67.7231 159.841C65.1371 161.981 64.7761 165.812 66.9171 168.397L100.764 209.289C100.804 214.888 92.2574 215.808 92.2574 215.808C87.993 216.211 83.8008 217.851 80.254 220.788C70.8455 228.576 69.5311 242.517 77.3188 251.927C85.1064 261.335 99.0475 262.65 108.457 254.862C112.2 251.765 114.657 247.692 115.775 243.32C119.017 236.771 122.177 236.43 123.342 236.565L145.325 263.126C147.465 265.712 151.296 266.073 153.881 263.932L187.526 236.082C192.994 236.192 193.909 244.565 193.909 244.565L193.912 244.562C194.314 248.826 195.953 253.019 198.891 256.567C206.679 265.975 220.621 267.29 230.03 259.502C239.44 251.715 240.753 237.773 232.965 228.363H232.969Z" fill="#E6E6E6"/>
<path d="M145.646 95.3447C145.646 95.3447 185.572 117.599 185.556 138.329C185.538 159.059 126.001 221.187 153.885 263.931L166.588 253.665C166.588 253.665 147.702 250.757 155.313 222.496C162.924 194.235 195.972 144.617 193.704 125.766C191.435 106.915 162.455 81.4316 162.455 81.4316L145.646 95.3447Z" fill="#EBEBEB"/>
<path d="M283.966 74.6372L286.518 85.702L297.584 88.2541L286.518 90.8063L283.966 101.871L281.413 90.8063L270.349 88.2541L281.413 85.702L283.966 74.6372Z" fill="#E6E6E6"/>
<path d="M996.554 61.0205L999.107 72.0853L1010.17 74.6374L999.107 77.1896L996.554 88.2543L994.002 77.1896L982.938 74.6374L994.002 72.0853L996.554 61.0205Z" fill="#E6E6E6"/>
<path d="M177.365 534.199L179.919 545.266L190.983 547.818L179.919 550.37L177.365 561.435L174.813 550.37L163.748 547.818L174.813 545.266L177.365 534.199Z" fill="#E6E6E6"/>
<path d="M63.6613 267.806L66.2135 278.87L77.2783 281.423L66.2135 283.975L63.6613 295.039L61.1077 283.975L50.043 281.423L61.1077 278.87L63.6613 267.806Z" fill="#E6E6E6"/>
<path d="M693.409 536.751L695.961 547.818L707.026 550.37L695.961 552.922L693.409 563.987L690.857 552.922L679.792 550.37L690.857 547.818L693.409 536.751Z" fill="#E6E6E6"/>
<path d="M682.113 44.7498L685.163 57.9703L698.383 61.0205L685.163 64.0692L682.113 77.2912L679.062 64.0692L665.842 61.0205L679.062 57.9703L682.113 44.7498Z" fill="#E6E6E6"/>
<path d="M1028.84 200.097L1030.35 206.666L1036.92 208.18L1030.35 209.697L1028.84 216.266L1027.32 209.697L1020.75 208.18L1027.32 206.666L1028.84 200.097Z" fill="#E6E6E6"/>
<path d="M611.28 444.205L612.794 450.774L619.363 452.29L612.794 453.805L611.28 460.374L609.763 453.805L603.194 452.29L609.763 450.774L611.28 444.205Z" fill="#E6E6E6"/>
<path d="M414.408 491.299L415.922 497.868L422.491 499.384L415.922 500.899L414.408 507.468L412.891 500.899L406.322 499.384L412.891 497.868L414.408 491.299Z" fill="#E6E6E6"/>
<path d="M62.0677 452.29L63.5825 458.859L70.153 460.374L63.5825 461.89L62.0677 468.459L60.5529 461.89L53.9824 460.374L60.5529 458.859L62.0677 452.29Z" fill="#E6E6E6"/>
<path d="M927.855 542.285L929.372 548.854L935.941 550.37L929.372 551.885L927.855 558.454L926.34 551.885L919.771 550.37L926.34 548.854L927.855 542.285Z" fill="#E6E6E6"/>
<path d="M391.612 164.596L393.126 171.167L399.695 172.682L393.126 174.196L391.612 180.767L390.095 174.196L383.526 172.682L390.095 171.167L391.612 164.596Z" fill="#E6E6E6"/>
<path d="M390.096 0L391.612 6.569L398.181 8.08527L391.612 9.60006L390.096 16.1691L388.581 9.60006L382.012 8.08527L388.581 6.569L390.096 0Z" fill="#E6E6E6"/>
<path d="M105.831 70.4363L107.347 77.0053L113.916 78.5215L107.347 80.0363L105.831 86.6053L104.316 80.0363L97.7471 78.5215L104.316 77.0053L105.831 70.4363Z" fill="#E6E6E6"/>
<path d="M802.843 175.066L804.358 181.635L810.927 183.15L804.358 184.666L802.843 191.235L801.327 184.666L794.758 183.15L801.327 181.635L802.843 175.066Z" fill="#E6E6E6"/>
<path d="M588.489 516.387C586.587 514.979 584.372 514.302 582.173 514.286L582.179 514.277C578.843 513.54 578.221 512.17 578.114 511.561L590.879 494.312C591.852 492.999 591.575 491.146 590.262 490.175L542.139 454.562C540.826 453.59 538.972 453.867 538.001 455.181L525.257 472.402C525.339 472.983 525.899 474.409 529.33 475.167L529.324 475.176C531.522 475.192 533.737 475.868 535.639 477.277C540.419 480.815 541.426 487.556 537.889 492.336C534.351 497.116 527.61 498.123 522.83 494.586C521.028 493.253 519.763 491.463 519.075 489.494C519.075 489.494 517.646 485.593 515.014 486.245L502.391 503.302C501.418 504.615 501.695 506.469 503.008 507.44L523.782 522.813C524.455 525.455 520.522 526.888 520.522 526.888C518.554 527.576 516.765 528.842 515.431 530.644C511.893 535.424 512.901 542.165 517.681 545.703C522.462 549.241 529.204 548.233 532.741 543.453C534.148 541.552 534.833 539.341 534.851 537.143C535.619 533.67 537.072 533.14 537.637 533.068L551.131 543.052C552.443 544.025 554.297 543.748 555.268 542.435L567.917 525.343C570.515 524.757 571.925 528.607 571.925 528.607C572.613 530.574 573.877 532.365 575.68 533.698C580.46 537.236 587.203 536.228 590.739 531.448C594.277 526.668 593.269 519.925 588.489 516.389V516.387Z" fill="#E6E6E6"/>
<path d="M507.426 510.711C507.426 510.711 508.222 501.997 528.274 505.695C548.325 509.394 567.21 505.306 568.573 496.935C569.936 488.564 560.015 467.792 560.015 467.792L576.692 480.134C576.692 480.134 583.954 495.572 573.051 503.165C562.149 510.758 533.337 506.773 524.381 510.713C515.424 514.652 518.32 518.774 518.32 518.774L506.47 511.147" fill="#EBEBEB"/>
<path d="M1081.33 590.285C1081.33 595.276 843.778 599.321 550.743 599.321C257.708 599.321 20.1553 595.276 20.1553 590.285C20.1553 585.294 257.708 581.249 550.743 581.249C843.778 581.249 1081.33 585.296 1081.33 590.285Z" fill="#F5F5F5"/>
<path d="M956.455 219.357H773.709C768.721 219.357 764.678 223.401 764.678 228.388V293.787C765.935 295.06 769.898 297.544 779.691 293.174V293.208C785.119 289.254 791.779 286.894 799.005 286.894C817.158 286.894 831.872 301.608 831.872 319.761C831.872 337.913 817.158 352.628 799.005 352.628C792.161 352.628 785.807 350.531 780.545 346.952V346.958C780.545 346.958 769.95 339.979 764.678 346.356V411.134C764.678 416.122 768.721 420.166 773.709 420.166H956.455C961.443 420.166 965.486 416.122 965.486 411.134V228.388C965.486 223.401 961.443 219.357 956.455 219.357Z" fill="#00DDB8"/>
<path d="M866.53 254.048V231.648H881.154V234.944H870.626V241.088H880.194V244.288H870.626V250.752H881.154V254.048H866.53ZM884.294 261.088V238.176H887.942L888.39 240.448C888.902 239.744 889.574 239.126 890.406 238.592C891.259 238.059 892.358 237.792 893.702 237.792C895.195 237.792 896.528 238.155 897.702 238.88C898.875 239.606 899.803 240.598 900.486 241.856C901.168 243.115 901.51 244.544 901.51 246.144C901.51 247.744 901.168 249.174 900.486 250.432C899.803 251.67 898.875 252.651 897.702 253.376C896.528 254.08 895.195 254.432 893.702 254.432C892.507 254.432 891.462 254.208 890.566 253.76C889.67 253.312 888.944 252.683 888.39 251.872V261.088H884.294ZM892.838 250.848C894.139 250.848 895.216 250.411 896.07 249.536C896.923 248.662 897.35 247.531 897.35 246.144C897.35 244.758 896.923 243.616 896.07 242.72C895.216 241.824 894.139 241.376 892.838 241.376C891.515 241.376 890.427 241.824 889.574 242.72C888.742 243.595 888.326 244.726 888.326 246.112C888.326 247.499 888.742 248.64 889.574 249.536C890.427 250.411 891.515 250.848 892.838 250.848ZM906.737 235.712C905.99 235.712 905.371 235.488 904.881 235.04C904.411 234.592 904.177 234.027 904.177 233.344C904.177 232.662 904.411 232.107 904.881 231.68C905.371 231.232 905.99 231.008 906.737 231.008C907.483 231.008 908.091 231.232 908.561 231.68C909.051 232.107 909.297 232.662 909.297 233.344C909.297 234.027 909.051 234.592 908.561 235.04C908.091 235.488 907.483 235.712 906.737 235.712ZM904.689 254.048V238.176H908.785V254.048H904.689ZM920.196 254.432C918.575 254.432 917.145 254.08 915.908 253.376C914.671 252.672 913.689 251.691 912.964 250.432C912.26 249.174 911.908 247.734 911.908 246.112C911.908 244.491 912.26 243.051 912.964 241.792C913.689 240.534 914.671 239.552 915.908 238.848C917.145 238.144 918.575 237.792 920.196 237.792C922.223 237.792 923.929 238.326 925.316 239.392C926.703 240.438 927.588 241.888 927.972 243.744H923.652C923.439 242.976 923.012 242.379 922.372 241.952C921.753 241.504 921.017 241.28 920.164 241.28C919.033 241.28 918.073 241.707 917.284 242.56C916.495 243.414 916.1 244.598 916.1 246.112C916.1 247.627 916.495 248.811 917.284 249.664C918.073 250.518 919.033 250.944 920.164 250.944C921.017 250.944 921.753 250.731 922.372 250.304C923.012 249.878 923.439 249.27 923.652 248.48H927.972C927.588 250.272 926.703 251.712 925.316 252.8C923.929 253.888 922.223 254.432 920.196 254.432ZM830.622 286.048V263.648H845.246V266.944H834.718V273.088H844.286V276.288H834.718V282.752H845.246V286.048H830.622ZM852.674 286.048L846.85 270.176H851.138L855.17 282.176L859.202 270.176H863.49L857.634 286.048H852.674ZM872.364 286.432C870.764 286.432 869.346 286.091 868.108 285.408C866.871 284.726 865.9 283.766 865.196 282.528C864.492 281.291 864.14 279.862 864.14 278.24C864.14 276.598 864.482 275.136 865.164 273.856C865.868 272.576 866.828 271.584 868.044 270.88C869.282 270.155 870.732 269.792 872.396 269.792C873.954 269.792 875.33 270.134 876.524 270.816C877.719 271.499 878.647 272.438 879.308 273.632C879.991 274.806 880.332 276.118 880.332 277.568C880.332 277.803 880.322 278.048 880.3 278.304C880.3 278.56 880.29 278.827 880.268 279.104H868.204C868.29 280.342 868.716 281.312 869.484 282.016C870.274 282.72 871.223 283.072 872.332 283.072C873.164 283.072 873.858 282.891 874.412 282.528C874.988 282.144 875.415 281.654 875.692 281.056H879.852C879.554 282.059 879.052 282.976 878.348 283.808C877.666 284.619 876.812 285.259 875.788 285.728C874.786 286.198 873.644 286.432 872.364 286.432ZM872.396 273.12C871.394 273.12 870.508 273.408 869.74 273.984C868.972 274.539 868.482 275.392 868.268 276.544H876.172C876.108 275.499 875.724 274.667 875.02 274.048C874.316 273.43 873.442 273.12 872.396 273.12ZM883.137 286.048V270.176H886.753L887.073 272.864C887.564 271.926 888.268 271.179 889.185 270.624C890.124 270.07 891.223 269.792 892.481 269.792C894.444 269.792 895.969 270.411 897.057 271.648C898.145 272.886 898.689 274.699 898.689 277.088V286.048H894.593V277.472C894.593 276.107 894.316 275.062 893.761 274.336C893.207 273.611 892.343 273.248 891.169 273.248C890.017 273.248 889.068 273.654 888.321 274.464C887.596 275.275 887.233 276.406 887.233 277.856V286.048H883.137ZM909.038 286.048C907.374 286.048 906.041 285.643 905.038 284.832C904.035 284.022 903.534 282.582 903.534 280.512V273.6H900.814V270.176H903.534L904.014 265.92H907.63V270.176H911.918V273.6H907.63V280.544C907.63 281.312 907.79 281.846 908.11 282.144C908.451 282.422 909.027 282.56 909.838 282.56H911.822V286.048H909.038ZM921.355 286.432C919.947 286.432 918.71 286.208 917.643 285.76C916.576 285.291 915.723 284.651 915.083 283.84C914.443 283.03 914.059 282.091 913.931 281.024H918.059C918.187 281.643 918.528 282.176 919.083 282.624C919.659 283.051 920.395 283.264 921.291 283.264C922.187 283.264 922.838 283.083 923.243 282.72C923.67 282.358 923.883 281.942 923.883 281.472C923.883 280.79 923.584 280.331 922.987 280.096C922.39 279.84 921.558 279.595 920.491 279.36C919.808 279.211 919.115 279.03 918.411 278.816C917.707 278.603 917.056 278.336 916.459 278.016C915.883 277.675 915.414 277.248 915.051 276.736C914.688 276.203 914.507 275.552 914.507 274.784C914.507 273.376 915.062 272.192 916.171 271.232C917.302 270.272 918.88 269.792 920.907 269.792C922.784 269.792 924.278 270.23 925.387 271.104C926.518 271.979 927.19 273.184 927.403 274.72H923.531C923.296 273.547 922.411 272.96 920.875 272.96C920.107 272.96 919.51 273.11 919.083 273.408C918.678 273.707 918.475 274.08 918.475 274.528C918.475 274.998 918.784 275.371 919.403 275.648C920.022 275.926 920.843 276.182 921.867 276.416C922.976 276.672 923.99 276.96 924.907 277.28C925.846 277.579 926.592 278.038 927.147 278.656C927.702 279.254 927.979 280.118 927.979 281.248C928 282.23 927.744 283.115 927.211 283.904C926.678 284.694 925.91 285.312 924.907 285.76C923.904 286.208 922.72 286.432 921.355 286.432Z" fill="white"/>
<path opacity="0.4" d="M907.675 424.255L904.983 392.407C903.875 381.32 901.934 374.113 909.418 374.669C916.903 375.224 923.277 383.538 926.049 394.071L929.416 424.256" fill="black"/>
<path opacity="0.4" d="M940.309 424.255C939.945 415.175 941.569 366.629 941.569 366.629C941.569 354.711 935.195 320.341 936.58 303.711C937.965 287.081 942.4 278.488 948.775 279.043C955.149 279.597 957.921 292.901 957.921 292.901C957.921 292.901 961.801 291.793 965.128 298.722C968.455 305.65 975.661 322.836 975.661 322.836C975.661 322.836 987.131 374.465 985.797 424.255H940.309Z" fill="black"/>
<path d="M958.71 588.742C958.71 588.742 953.895 515.538 944.597 510.032C942.976 509.073 914.537 484.217 906.499 457.609C898.461 431 901.786 399.404 900.678 388.317C899.57 377.23 897.63 370.023 905.114 370.578C912.598 371.134 918.972 379.447 921.744 389.98C924.516 400.513 922.575 423.795 926.179 428.23C929.784 432.665 932.277 429.894 932.277 429.061C932.277 428.229 937.266 374.458 937.266 362.54C937.266 350.622 930.892 316.252 932.277 299.622C933.662 282.992 938.097 274.399 944.472 274.953C950.846 275.507 953.618 288.812 953.618 288.812C953.618 288.812 957.498 287.704 960.825 294.632C964.151 301.562 971.358 318.747 971.358 318.747C971.358 318.747 972.189 305.442 978.009 304.888C983.83 304.334 986.879 310.986 989.096 319.024C991.314 327.062 994.917 339.534 996.857 349.236C998.798 358.937 1000.74 374.735 1000.74 374.735C1000.74 374.735 1002.68 348.403 1004.62 343.969C1006.56 339.534 1013.49 335.654 1015.43 339.534C1017.37 343.414 1013.49 387.484 1013.49 395.799C1013.49 404.114 1004.62 468.418 1007.94 482.832C1011.27 497.245 1043.13 588.742 1043.13 588.742H958.71Z" fill="#B97964"/>
<path d="M964.763 390.142C965.764 375.958 966.759 361.644 964.877 347.488C963.228 335.071 959.734 322.954 957.466 310.645C956.074 303.088 955.125 295.469 954.802 287.788C954.742 286.37 952.532 286.363 952.592 287.788C953.131 300.596 955.56 313.11 958.318 325.596C959.686 331.789 961.105 337.982 962.169 344.237C963.374 351.325 963.756 358.532 963.728 365.714C963.695 373.87 963.126 382.01 962.552 390.142C962.451 391.561 964.663 391.555 964.763 390.142Z" fill="#A24E3F"/>
<path d="M970.767 318.216C974.943 327.121 979.076 336.31 981.748 345.79C983.02 350.301 983.076 354.889 983.171 359.547C983.301 365.888 983.28 372.233 983.226 378.574C983.194 382.43 983.148 386.286 983.073 390.142C983.045 391.566 985.255 391.566 985.283 390.142C985.47 380.471 985.564 370.79 985.41 361.118C985.335 356.392 985.447 351.483 984.318 346.862C982.84 340.803 980.406 334.942 978.007 329.2C976.308 325.134 974.547 321.09 972.675 317.099C972.071 315.813 970.166 316.933 970.767 318.215V318.216Z" fill="#A24E3F"/>
<path d="M999.813 370.963C998.997 380.144 999.713 389.422 999.723 398.623C999.725 400.044 1001.93 400.047 1001.93 398.623C1001.92 389.422 1001.21 380.144 1002.02 370.963C1002.15 369.547 999.938 369.554 999.813 370.963Z" fill="#A24E3F"/>
<path opacity="0.2" d="M821.609 220.8C821.609 220.8 822.278 264.316 861.063 279.697C899.847 295.078 893.829 321.827 883.799 343.894C873.769 365.962 810.909 421.65 813.584 421.65H852.401C852.401 421.65 848.356 403.751 877.78 367.804C907.203 331.857 916.769 302.433 900.618 285.716C884.467 268.999 837.657 262.296 853.707 220.843H817.596" fill="white"/>
<path opacity="0.4" d="M784.849 362.443C784.849 362.443 813.991 376.061 823.878 353.832C823.878 353.832 813.664 357.21 805.953 349.501C798.242 341.79 784.398 342.617 784.849 342.617C785.3 342.617 784.849 362.443 784.849 362.443Z" fill="black"/>
<path d="M799.465 288.288C792.238 288.288 785.577 290.648 780.152 294.602V294.568C770.63 298.817 766.616 296.585 765.244 295.287V229.782C765.244 224.795 761.201 220.751 756.213 220.751H573.467C568.479 220.751 564.436 224.795 564.436 229.782V295.181C565.692 296.454 569.656 298.938 579.449 294.568V294.602C584.876 290.648 591.537 288.288 598.763 288.288C616.915 288.288 631.63 303.002 631.63 321.155C631.63 339.307 616.915 354.022 598.763 354.022C591.918 354.022 585.564 351.925 580.302 348.344V348.35C580.302 348.35 569.708 341.372 564.436 347.749V412.527C564.436 417.515 568.479 421.558 573.467 421.558H652.355C658.803 426.819 651.757 437.474 651.757 437.474H651.758C648.179 442.736 646.085 449.091 646.085 455.934C646.085 474.087 660.8 488.801 678.953 488.801C697.105 488.801 711.82 474.087 711.82 455.934C711.82 448.714 709.486 442.043 705.539 436.621C701.114 426.704 703.718 422.762 704.975 421.558H756.213C761.201 421.558 765.244 417.515 765.244 412.527V347.619C770.552 341.463 781.005 348.349 781.005 348.349V348.343C786.267 351.924 792.621 354.02 799.465 354.02C817.618 354.02 832.332 339.306 832.332 321.153C832.332 303.001 817.618 288.288 799.465 288.288Z" fill="#F40076"/>
<path opacity="0.2" d="M599.672 421.162C599.672 421.162 606.142 386.912 661.436 354.941C716.731 322.97 656.525 220.764 656.525 220.764H673.201C673.201 220.764 712.74 261.698 710.848 320.985C708.78 385.835 648.239 353.406 629.838 385.835C611.437 418.265 625.554 421.206 625.554 421.206L599.672 421.163V421.162Z" fill="white"/>
<path opacity="0.2" d="M718.898 421.205C718.898 421.205 718.898 402.638 740.415 384.518C761.931 366.398 765.244 364.849 765.244 364.849V379.423C765.244 379.423 742.114 388.118 738.15 399.908C734.186 411.697 742.071 421.205 742.071 421.205H718.898Z" fill="white"/>
<path d="M646.257 326.697C643.995 326.697 642.054 326.217 640.433 325.257C638.811 324.275 637.563 322.921 636.689 321.193C635.814 319.443 635.377 317.427 635.377 315.145C635.377 312.862 635.814 310.846 636.689 309.097C637.563 307.347 638.811 305.982 640.433 305.001C642.054 304.019 643.995 303.529 646.257 303.529C648.945 303.529 651.142 304.201 652.849 305.545C654.577 306.867 655.654 308.734 656.081 311.145H651.569C651.291 309.929 650.694 308.979 649.777 308.297C648.881 307.593 647.686 307.241 646.193 307.241C644.123 307.241 642.502 307.945 641.329 309.353C640.155 310.761 639.569 312.691 639.569 315.145C639.569 317.598 640.155 319.529 641.329 320.937C642.502 322.323 644.123 323.017 646.193 323.017C647.686 323.017 648.881 322.697 649.777 322.057C650.694 321.395 651.291 320.489 651.569 319.337H656.081C655.654 321.641 654.577 323.443 652.849 324.745C651.142 326.046 648.945 326.697 646.257 326.697ZM666.586 326.697C665.05 326.697 663.664 326.345 662.426 325.641C661.21 324.937 660.24 323.966 659.514 322.729C658.81 321.47 658.458 320.019 658.458 318.377C658.458 316.734 658.821 315.294 659.546 314.057C660.272 312.798 661.242 311.817 662.458 311.113C663.696 310.409 665.082 310.057 666.618 310.057C668.133 310.057 669.498 310.409 670.714 311.113C671.952 311.817 672.922 312.798 673.626 314.057C674.352 315.294 674.714 316.734 674.714 318.377C674.714 320.019 674.352 321.47 673.626 322.729C672.922 323.966 671.952 324.937 670.714 325.641C669.477 326.345 668.101 326.697 666.586 326.697ZM666.586 323.145C667.653 323.145 668.581 322.75 669.37 321.961C670.16 321.15 670.554 319.955 670.554 318.377C670.554 316.798 670.16 315.614 669.37 314.825C668.581 314.014 667.664 313.609 666.618 313.609C665.53 313.609 664.592 314.014 663.802 314.825C663.034 315.614 662.65 316.798 662.65 318.377C662.65 319.955 663.034 321.15 663.802 321.961C664.592 322.75 665.52 323.145 666.586 323.145ZM677.737 326.313V310.441H681.353L681.705 312.585C682.217 311.817 682.889 311.209 683.721 310.761C684.574 310.291 685.555 310.057 686.665 310.057C689.118 310.057 690.857 311.006 691.881 312.905C692.457 312.03 693.225 311.337 694.185 310.825C695.166 310.313 696.233 310.057 697.385 310.057C699.454 310.057 701.043 310.675 702.153 311.913C703.262 313.15 703.817 314.963 703.817 317.353V326.313H699.721V317.737C699.721 316.371 699.454 315.326 698.921 314.601C698.409 313.875 697.609 313.513 696.521 313.513C695.411 313.513 694.515 313.918 693.833 314.729C693.171 315.539 692.841 316.67 692.841 318.121V326.313H688.745V317.737C688.745 316.371 688.478 315.326 687.945 314.601C687.411 313.875 686.59 313.513 685.481 313.513C684.393 313.513 683.507 313.918 682.825 314.729C682.163 315.539 681.833 316.67 681.833 318.121V326.313H677.737ZM707.065 326.313V310.441H710.681L711.033 312.585C711.545 311.817 712.217 311.209 713.049 310.761C713.903 310.291 714.884 310.057 715.993 310.057C718.447 310.057 720.185 311.006 721.209 312.905C721.785 312.03 722.553 311.337 723.513 310.825C724.495 310.313 725.561 310.057 726.713 310.057C728.783 310.057 730.372 310.675 731.481 311.913C732.591 313.15 733.145 314.963 733.145 317.353V326.313H729.049V317.737C729.049 316.371 728.783 315.326 728.249 314.601C727.737 313.875 726.937 313.513 725.849 313.513C724.74 313.513 723.844 313.918 723.161 314.729C722.5 315.539 722.169 316.67 722.169 318.121V326.313H718.073V317.737C718.073 316.371 717.807 315.326 717.273 314.601C716.74 313.875 715.919 313.513 714.809 313.513C713.721 313.513 712.836 313.918 712.153 314.729C711.492 315.539 711.161 316.67 711.161 318.121V326.313H707.065ZM742.346 326.697C740.362 326.697 738.826 326.078 737.738 324.841C736.671 323.603 736.138 321.79 736.138 319.401V310.441H740.202V319.017C740.202 320.382 740.479 321.427 741.034 322.153C741.589 322.878 742.463 323.241 743.658 323.241C744.789 323.241 745.717 322.835 746.442 322.025C747.189 321.214 747.562 320.083 747.562 318.633V310.441H751.658V326.313H748.042L747.722 323.625C747.231 324.563 746.517 325.31 745.578 325.865C744.661 326.419 743.583 326.697 742.346 326.697ZM755.223 326.313V310.441H758.839L759.159 313.129C759.649 312.19 760.353 311.443 761.271 310.889C762.209 310.334 763.308 310.057 764.567 310.057C766.529 310.057 768.055 310.675 769.143 311.913C770.231 313.15 770.775 314.963 770.775 317.353V326.313H766.679V317.737C766.679 316.371 766.401 315.326 765.847 314.601C765.292 313.875 764.428 313.513 763.255 313.513C762.103 313.513 761.153 313.918 760.407 314.729C759.681 315.539 759.319 316.67 759.319 318.121V326.313H755.223ZM776.26 307.977C775.513 307.977 774.894 307.753 774.404 307.305C773.934 306.857 773.7 306.291 773.7 305.609C773.7 304.926 773.934 304.371 774.404 303.945C774.894 303.497 775.513 303.273 776.26 303.273C777.006 303.273 777.614 303.497 778.084 303.945C778.574 304.371 778.82 304.926 778.82 305.609C778.82 306.291 778.574 306.857 778.084 307.305C777.614 307.753 777.006 307.977 776.26 307.977ZM774.212 326.313V310.441H778.308V326.313H774.212ZM789.015 326.313C787.351 326.313 786.017 325.907 785.015 325.097C784.012 324.286 783.511 322.846 783.511 320.777V313.865H780.791V310.441H783.511L783.991 306.185H787.607V310.441H791.895V313.865H787.607V320.809C787.607 321.577 787.767 322.11 788.087 322.409C788.428 322.686 789.004 322.825 789.815 322.825H791.799V326.313H789.015ZM796.756 333.353L800.436 325.257H799.476L793.3 310.441H797.748L802.196 321.609L806.836 310.441H811.188L801.108 333.353H796.756ZM646.257 358.697C643.995 358.697 642.054 358.217 640.433 357.257C638.811 356.275 637.563 354.921 636.689 353.193C635.814 351.443 635.377 349.427 635.377 347.145C635.377 344.862 635.814 342.846 636.689 341.097C637.563 339.347 638.811 337.982 640.433 337.001C642.054 336.019 643.995 335.529 646.257 335.529C648.945 335.529 651.142 336.201 652.849 337.545C654.577 338.867 655.654 340.734 656.081 343.145H651.569C651.291 341.929 650.694 340.979 649.777 340.297C648.881 339.593 647.686 339.241 646.193 339.241C644.123 339.241 642.502 339.945 641.329 341.353C640.155 342.761 639.569 344.691 639.569 347.145C639.569 349.598 640.155 351.529 641.329 352.937C642.502 354.323 644.123 355.017 646.193 355.017C647.686 355.017 648.881 354.697 649.777 354.057C650.694 353.395 651.291 352.489 651.569 351.337H656.081C655.654 353.641 654.577 355.443 652.849 356.745C651.142 358.046 648.945 358.697 646.257 358.697ZM666.586 358.697C665.05 358.697 663.664 358.345 662.426 357.641C661.21 356.937 660.24 355.966 659.514 354.729C658.81 353.47 658.458 352.019 658.458 350.377C658.458 348.734 658.821 347.294 659.546 346.057C660.272 344.798 661.242 343.817 662.458 343.113C663.696 342.409 665.082 342.057 666.618 342.057C668.133 342.057 669.498 342.409 670.714 343.113C671.952 343.817 672.922 344.798 673.626 346.057C674.352 347.294 674.714 348.734 674.714 350.377C674.714 352.019 674.352 353.47 673.626 354.729C672.922 355.966 671.952 356.937 670.714 357.641C669.477 358.345 668.101 358.697 666.586 358.697ZM666.586 355.145C667.653 355.145 668.581 354.75 669.37 353.961C670.16 353.15 670.554 351.955 670.554 350.377C670.554 348.798 670.16 347.614 669.37 346.825C668.581 346.014 667.664 345.609 666.618 345.609C665.53 345.609 664.592 346.014 663.802 346.825C663.034 347.614 662.65 348.798 662.65 350.377C662.65 351.955 663.034 353.15 663.802 353.961C664.592 354.75 665.52 355.145 666.586 355.145ZM677.737 358.313V342.441H681.353L681.673 345.129C682.163 344.19 682.867 343.443 683.785 342.889C684.723 342.334 685.822 342.057 687.081 342.057C689.043 342.057 690.569 342.675 691.657 343.913C692.745 345.15 693.289 346.963 693.289 349.353V358.313H689.193V349.737C689.193 348.371 688.915 347.326 688.361 346.601C687.806 345.875 686.942 345.513 685.769 345.513C684.617 345.513 683.667 345.918 682.921 346.729C682.195 347.539 681.833 348.67 681.833 350.121V358.313H677.737ZM696.565 358.313V342.441H700.181L700.501 345.129C700.992 344.19 701.696 343.443 702.613 342.889C703.552 342.334 704.651 342.057 705.909 342.057C707.872 342.057 709.397 342.675 710.485 343.913C711.573 345.15 712.117 346.963 712.117 349.353V358.313H708.021V349.737C708.021 348.371 707.744 347.326 707.189 346.601C706.635 345.875 705.771 345.513 704.597 345.513C703.445 345.513 702.496 345.918 701.749 346.729C701.024 347.539 700.661 348.67 700.661 350.121V358.313H696.565ZM723.106 358.697C721.506 358.697 720.087 358.355 718.85 357.673C717.613 356.99 716.642 356.03 715.938 354.793C715.234 353.555 714.882 352.126 714.882 350.505C714.882 348.862 715.223 347.401 715.906 346.121C716.61 344.841 717.57 343.849 718.786 343.145C720.023 342.419 721.474 342.057 723.138 342.057C724.695 342.057 726.071 342.398 727.266 343.081C728.461 343.763 729.389 344.702 730.05 345.897C730.733 347.07 731.074 348.382 731.074 349.833C731.074 350.067 731.063 350.313 731.042 350.569C731.042 350.825 731.031 351.091 731.01 351.369H718.946C719.031 352.606 719.458 353.577 720.226 354.281C721.015 354.985 721.965 355.337 723.074 355.337C723.906 355.337 724.599 355.155 725.154 354.793C725.73 354.409 726.157 353.918 726.434 353.321H730.594C730.295 354.323 729.794 355.241 729.09 356.073C728.407 356.883 727.554 357.523 726.53 357.993C725.527 358.462 724.386 358.697 723.106 358.697ZM723.138 345.385C722.135 345.385 721.25 345.673 720.482 346.249C719.714 346.803 719.223 347.657 719.01 348.809H726.914C726.85 347.763 726.466 346.931 725.762 346.313C725.058 345.694 724.183 345.385 723.138 345.385ZM741.655 358.697C740.034 358.697 738.604 358.345 737.367 357.641C736.13 356.937 735.148 355.955 734.423 354.697C733.719 353.438 733.367 351.998 733.367 350.377C733.367 348.755 733.719 347.315 734.423 346.057C735.148 344.798 736.13 343.817 737.367 343.113C738.604 342.409 740.034 342.057 741.655 342.057C743.682 342.057 745.388 342.59 746.775 343.657C748.162 344.702 749.047 346.153 749.431 348.009H745.111C744.898 347.241 744.471 346.643 743.831 346.217C743.212 345.769 742.476 345.545 741.623 345.545C740.492 345.545 739.532 345.971 738.743 346.825C737.954 347.678 737.559 348.862 737.559 350.377C737.559 351.891 737.954 353.075 738.743 353.929C739.532 354.782 740.492 355.209 741.623 355.209C742.476 355.209 743.212 354.995 743.831 354.569C744.471 354.142 744.898 353.534 745.111 352.745H749.431C749.047 354.537 748.162 355.977 746.775 357.065C745.388 358.153 743.682 358.697 741.655 358.697ZM759.28 358.313C757.616 358.313 756.282 357.907 755.28 357.097C754.277 356.286 753.776 354.846 753.776 352.777V345.865H751.056V342.441H753.776L754.256 338.185H757.872V342.441H762.16V345.865H757.872V352.809C757.872 353.577 758.032 354.11 758.352 354.409C758.693 354.686 759.269 354.825 760.08 354.825H762.064V358.313H759.28Z" fill="white"/>
<path d="M333.731 294.602V229.824C333.731 224.836 329.687 220.792 324.7 220.792H254.477C250.065 215.277 256.201 206.003 256.201 206.003H256.198C259.777 200.741 261.871 194.385 261.871 187.542C261.871 169.39 247.156 154.675 229.004 154.675C210.852 154.675 196.137 169.39 196.137 187.542C196.137 194.762 198.471 201.433 202.417 206.857C205.926 214.719 205.013 218.827 203.858 220.794H141.952C136.964 220.794 132.921 224.837 132.921 229.825L132.921 412.571C132.921 417.559 136.964 421.602 141.952 421.602H324.698C329.686 421.602 333.729 417.559 333.729 412.571V347.173C332.472 345.9 328.509 343.415 318.716 347.786V347.752C313.289 351.705 306.628 354.066 299.402 354.066C281.251 354.066 266.535 339.351 266.535 321.199C266.535 303.046 281.25 288.332 299.402 288.332C306.247 288.332 312.6 290.429 317.864 294.008V294.002C317.864 294.002 328.459 300.979 333.731 294.602Z" fill="#0A84FF"/>
<path opacity="0.2" d="M271.834 220.792C271.834 220.792 281.775 238.551 259.11 254.057C236.446 269.565 210.202 305.351 205.033 329.605C199.864 353.86 133.064 359.427 133.064 359.427V400.301C133.064 400.301 199.864 391.794 212.588 361.098C225.312 330.401 227.068 300.182 248.258 279.108C269.449 258.033 312.788 220.791 312.788 220.791H271.833" fill="white"/>
<path opacity="0.4" d="M134.965 283.926C134.965 283.926 141.655 283.569 144.147 294.605C146.638 305.64 132.923 343.016 132.923 343.016V309.069L134.965 283.926Z" fill="black"/>
<path opacity="0.4" d="M171.739 356.783C171.739 356.783 184.199 357.594 188.217 370.469L189.573 376.412C189.573 376.412 202.199 385.134 198.489 401.462C197.637 405.209 193.106 411.918 193.106 411.918L197.761 421.599L174.152 421.227L165.301 374.164L171.737 356.783H171.739Z" fill="black"/>
<path d="M102.202 459.589C102.202 459.589 90.1665 374.063 88.7578 352.918C87.3477 331.773 125.879 282.623 130.578 281.215C135.277 279.804 141.855 284.974 139.976 296.251C138.098 307.527 121.18 337.881 121.18 337.881L123.999 357.616C123.999 357.616 143.265 347.747 160.181 351.977C177.098 356.206 181.327 365.604 179.916 376.411C179.916 376.411 189.315 384.869 189.785 393.327C190.255 401.785 185.556 408.363 185.556 408.363C185.556 408.363 189.315 421.52 186.026 426.689C182.737 431.858 162.532 439.846 162.532 439.846C162.532 439.846 169.877 476.374 151.449 488.795C151.449 488.795 123.508 590.387 124.128 590.283H34.6748C34.6748 590.283 88.1935 485.685 91.9525 478.167C95.7114 470.649 102.202 459.587 102.202 459.587V459.589Z" fill="#FDBBB5"/>
<g opacity="0.2">
<path d="M164.304 425.099C163.759 423.326 163.301 421.502 162.384 419.89C161.468 418.278 159.994 416.868 158.17 416.536L163.149 439.568C164.457 436.806 165.798 433.905 165.667 430.852C165.583 428.876 164.885 426.988 164.304 425.099Z" fill="black"/>
</g>
<path d="M163.155 444.43C161.78 436.322 160.405 428.214 159.03 420.107C158.893 419.302 158.747 418.471 158.301 417.787C157.854 417.104 157.025 416.601 156.23 416.793" stroke="#D7504D" stroke-linecap="round" stroke-linejoin="round"/>
<path d="M130.711 374.949C148.06 364.267 169.091 364.365 179.917 376.412" stroke="#D7504D" stroke-linecap="round" stroke-linejoin="round"/>
<path d="M185.555 408.366C182.761 401.469 180.306 395.471 173.229 393.172C166.152 390.872 153.936 393.081 147.622 397.016" stroke="#D7504D" stroke-linecap="round" stroke-linejoin="round"/>
<path d="M160.445 423.695C163.388 420.948 167.24 419.195 171.243 418.778" stroke="#D7504D" stroke-linecap="round" stroke-linejoin="round"/>
<path d="M119.59 361.099C127.413 354.237 144.195 351.585 150.338 350.933" stroke="#D7504D" stroke-linecap="round" stroke-linejoin="round"/>
<path opacity="0.2" d="M291.492 353.132C291.492 353.132 237.995 394.165 240.708 421.599H270.09C270.09 421.599 246.134 420.278 258.338 400.303C270.543 380.326 302.636 353.055 302.66 353.895C302.666 354.121 293.29 353.508 291.493 353.133L291.492 353.132Z" fill="white"/>
<path d="M151.987 260.762V238.362H156.851L163.987 252.57L171.027 238.362H175.891V260.762H171.795V245.306L165.555 257.562H162.323L156.083 245.306V260.762H151.987ZM185.453 261.146C183.469 261.146 181.933 260.527 180.845 259.29C179.778 258.052 179.245 256.239 179.245 253.85V244.89H183.309V253.466C183.309 254.831 183.586 255.876 184.141 256.602C184.695 257.327 185.57 257.69 186.765 257.69C187.895 257.69 188.823 257.284 189.549 256.474C190.295 255.663 190.669 254.532 190.669 253.082V244.89H194.765V260.762H191.149L190.829 258.074C190.338 259.012 189.623 259.759 188.685 260.314C187.767 260.868 186.69 261.146 185.453 261.146ZM205.401 260.762C203.737 260.762 202.404 260.356 201.401 259.546C200.399 258.735 199.897 257.295 199.897 255.226V248.314H197.177V244.89H199.897L200.377 240.634H203.993V244.89H208.281V248.314H203.993V255.258C203.993 256.026 204.153 256.559 204.473 256.858C204.815 257.135 205.391 257.274 206.201 257.274H208.185V260.762H205.401ZM217.11 261.146C215.126 261.146 213.59 260.527 212.502 259.29C211.435 258.052 210.902 256.239 210.902 253.85V244.89H214.966V253.466C214.966 254.831 215.243 255.876 215.798 256.602C216.353 257.327 217.227 257.69 218.422 257.69C219.553 257.69 220.481 257.284 221.206 256.474C221.953 255.663 222.326 254.532 222.326 253.082V244.89H226.422V260.762H222.806L222.486 258.074C221.995 259.012 221.281 259.759 220.342 260.314C219.425 260.868 218.347 261.146 217.11 261.146ZM235.459 261.146C234.093 261.146 232.973 260.932 232.099 260.506C231.224 260.058 230.573 259.471 230.147 258.746C229.72 258.02 229.507 257.22 229.507 256.346C229.507 254.874 230.083 253.679 231.235 252.762C232.387 251.844 234.115 251.386 236.419 251.386H240.451V251.002C240.451 249.914 240.141 249.114 239.523 248.602C238.904 248.09 238.136 247.834 237.219 247.834C236.387 247.834 235.661 248.036 235.043 248.442C234.424 248.826 234.04 249.402 233.891 250.17H229.891C229.997 249.018 230.381 248.015 231.043 247.162C231.725 246.308 232.6 245.658 233.667 245.21C234.733 244.74 235.928 244.506 237.251 244.506C239.512 244.506 241.293 245.071 242.595 246.202C243.896 247.332 244.547 248.932 244.547 251.002V260.762H241.059L240.675 258.202C240.205 259.055 239.544 259.759 238.691 260.314C237.859 260.868 236.781 261.146 235.459 261.146ZM236.387 257.946C237.56 257.946 238.467 257.562 239.107 256.794C239.768 256.026 240.184 255.076 240.355 253.946H236.867C235.779 253.946 235 254.148 234.531 254.554C234.061 254.938 233.827 255.418 233.827 255.994C233.827 256.612 234.061 257.092 234.531 257.434C235 257.775 235.619 257.946 236.387 257.946ZM247.816 260.762V237.722H251.912V260.762H247.816ZM161.779 296.146C159.667 296.146 157.821 295.666 156.243 294.706C154.664 293.746 153.437 292.412 152.563 290.706C151.688 288.978 151.251 286.972 151.251 284.69C151.251 282.386 151.699 280.359 152.595 278.61C153.512 276.839 154.803 275.463 156.467 274.482C158.152 273.479 160.147 272.978 162.451 272.978C165.075 272.978 167.251 273.607 168.979 274.866C170.707 276.124 171.827 277.863 172.339 280.082H167.763C167.421 279.036 166.803 278.226 165.907 277.65C165.011 277.052 163.859 276.754 162.451 276.754C160.211 276.754 158.483 277.468 157.267 278.898C156.051 280.306 155.443 282.247 155.443 284.722C155.443 287.196 156.04 289.116 157.235 290.482C158.451 291.826 160.093 292.498 162.163 292.498C164.189 292.498 165.715 291.954 166.739 290.866C167.784 289.756 168.413 288.306 168.627 286.514H162.963V283.442H172.755V295.762H168.979L168.659 292.818C167.933 293.884 167.027 294.706 165.939 295.282C164.851 295.858 163.464 296.146 161.779 296.146ZM176.001 295.762V279.89H179.649L180.033 282.866C180.609 281.842 181.387 281.031 182.369 280.434C183.371 279.815 184.545 279.506 185.889 279.506V283.826H184.737C183.841 283.826 183.041 283.964 182.337 284.242C181.633 284.519 181.078 284.999 180.673 285.682C180.289 286.364 180.097 287.314 180.097 288.53V295.762H176.001ZM195.383 296.146C193.847 296.146 192.46 295.794 191.223 295.09C190.007 294.386 189.036 293.415 188.311 292.178C187.607 290.919 187.255 289.468 187.255 287.826C187.255 286.183 187.617 284.743 188.343 283.506C189.068 282.247 190.039 281.266 191.255 280.562C192.492 279.858 193.879 279.506 195.415 279.506C196.929 279.506 198.295 279.858 199.511 280.562C200.748 281.266 201.719 282.247 202.423 283.506C203.148 284.743 203.511 286.183 203.511 287.826C203.511 289.468 203.148 290.919 202.423 292.178C201.719 293.415 200.748 294.386 199.511 295.09C198.273 295.794 196.897 296.146 195.383 296.146ZM195.383 292.594C196.449 292.594 197.377 292.199 198.167 291.41C198.956 290.599 199.351 289.404 199.351 287.826C199.351 286.247 198.956 285.063 198.167 284.274C197.377 283.463 196.46 283.058 195.415 283.058C194.327 283.058 193.388 283.463 192.599 284.274C191.831 285.063 191.447 286.247 191.447 287.826C191.447 289.404 191.831 290.599 192.599 291.41C193.388 292.199 194.316 292.594 195.383 292.594ZM209.075 295.762L204.435 279.89H208.499L211.251 291.314L214.451 279.89H218.995L222.195 291.314L224.979 279.89H229.043L224.371 295.762H220.115L216.723 283.89L213.331 295.762H209.075ZM238.059 295.762C236.395 295.762 235.061 295.356 234.059 294.546C233.056 293.735 232.555 292.295 232.555 290.226V283.314H229.835V279.89H232.555L233.035 275.634H236.651V279.89H240.939V283.314H236.651V290.258C236.651 291.026 236.811 291.559 237.131 291.858C237.472 292.135 238.048 292.274 238.859 292.274H240.843V295.762H238.059ZM243.816 295.762V272.722H247.912V282.322C248.445 281.447 249.16 280.764 250.056 280.274C250.973 279.762 252.018 279.506 253.192 279.506C255.154 279.506 256.669 280.124 257.736 281.362C258.824 282.599 259.368 284.412 259.368 286.802V295.762H255.304V287.186C255.304 285.82 255.026 284.775 254.472 284.05C253.938 283.324 253.085 282.962 251.912 282.962C250.76 282.962 249.8 283.367 249.032 284.178C248.285 284.988 247.912 286.119 247.912 287.57V295.762H243.816Z" fill="white"/>
<path d="M434.707 429.111C434.707 429.111 444.573 415.853 460.667 409.152C476.761 402.454 480.878 403.575 483.231 408.028C485.584 412.481 474.612 426.409 469.893 430.265C465.173 434.121 435.941 453.805 435.941 453.805L434.707 429.111Z" fill="#E97F3F"/>
<path d="M588.36 288.329C581.133 288.329 574.472 290.689 569.047 294.643V294.609C560.127 298.589 556.047 296.883 554.437 295.583V229.822C554.437 224.834 550.393 220.791 545.405 220.791L362.659 220.791C357.672 220.791 353.63 224.834 353.63 229.822V295.99C348.079 299.837 339.232 293.999 339.232 293.999V294.003C333.97 290.423 327.616 288.327 320.771 288.327C302.619 288.327 287.904 303.042 287.904 321.195C287.904 339.347 302.619 354.062 320.771 354.062C327.999 354.062 334.659 351.701 340.085 347.748V347.781C347.472 344.485 351.533 345.095 353.63 346.138V412.568C353.63 417.556 357.673 421.599 362.659 421.599H545.405C550.393 421.599 554.437 417.556 554.437 412.568V347.301C559.83 341.741 569.898 348.39 569.898 348.39V348.384C575.16 351.965 581.514 354.062 588.359 354.062C606.511 354.062 621.226 339.347 621.226 321.195C621.226 303.042 606.511 288.327 588.359 288.327L588.36 288.329Z" fill="#FF793B"/>
<path opacity="0.4" d="M378.205 415.981C378.205 415.981 405.81 411.042 419.054 409.987H424.313C424.313 409.987 426.851 368.408 448.098 366.846L440.419 426.421L464.414 421.599C464.414 421.599 472.452 373.839 490.291 367.754L497.283 383.361C497.283 383.361 508.53 365.203 525.622 365.243L506.056 423.108L459.677 442.854L419.054 440.223L378.205 415.979V415.981Z" fill="black"/>
<path opacity="0.2" d="M526.391 220.75C527.312 221.876 527.482 223.423 527.539 224.876C528.011 236.798 523.233 248.834 514.715 257.187C499.495 272.114 475.846 273.714 457.119 283.901C440.738 292.811 428.317 308.717 423.64 326.769C422.123 332.628 421.368 338.734 418.941 344.279C414.049 355.457 402.855 362.875 391.112 366.19C379.37 369.506 365.829 367.988 353.63 367.752V387.365C365.829 387.599 383.908 382.351 395.652 379.035C407.395 375.72 418.589 368.302 423.481 357.124C425.908 351.579 426.661 345.472 428.179 339.614C432.854 321.561 440.175 303.875 456.556 294.964C475.283 284.778 504.032 284.959 519.252 270.032C527.77 261.679 546.614 232.746 546.142 220.825L526.388 220.75H526.391Z" fill="white"/>
<path d="M365.995 305.084V282.684H370.859L377.995 296.892L385.035 282.684H389.899V305.084H385.803V289.628L379.563 301.884H376.331L370.091 289.628V305.084H365.995ZM401.221 305.468C399.621 305.468 398.203 305.127 396.965 304.444C395.728 303.762 394.757 302.802 394.053 301.564C393.349 300.327 392.997 298.898 392.997 297.276C392.997 295.634 393.339 294.172 394.021 292.892C394.725 291.612 395.685 290.62 396.901 289.916C398.139 289.191 399.589 288.828 401.253 288.828C402.811 288.828 404.187 289.17 405.381 289.852C406.576 290.535 407.504 291.474 408.165 292.668C408.848 293.842 409.189 295.154 409.189 296.604C409.189 296.839 409.179 297.084 409.157 297.34C409.157 297.596 409.147 297.863 409.125 298.14H397.061C397.147 299.378 397.573 300.348 398.341 301.052C399.131 301.756 400.08 302.108 401.189 302.108C402.021 302.108 402.715 301.927 403.269 301.564C403.845 301.18 404.272 300.69 404.549 300.092H408.709C408.411 301.095 407.909 302.012 407.205 302.844C406.523 303.655 405.669 304.295 404.645 304.764C403.643 305.234 402.501 305.468 401.221 305.468ZM401.253 292.156C400.251 292.156 399.365 292.444 398.597 293.02C397.829 293.575 397.339 294.428 397.125 295.58H405.029C404.965 294.535 404.581 293.703 403.877 293.084C403.173 292.466 402.299 292.156 401.253 292.156ZM417.466 305.468C416.101 305.468 414.981 305.255 414.106 304.828C413.232 304.38 412.581 303.794 412.154 303.068C411.728 302.343 411.514 301.543 411.514 300.668C411.514 299.196 412.09 298.002 413.242 297.084C414.394 296.167 416.122 295.708 418.426 295.708H422.458V295.324C422.458 294.236 422.149 293.436 421.53 292.924C420.912 292.412 420.144 292.156 419.226 292.156C418.394 292.156 417.669 292.359 417.05 292.764C416.432 293.148 416.048 293.724 415.898 294.492H411.898C412.005 293.34 412.389 292.338 413.05 291.484C413.733 290.631 414.608 289.98 415.674 289.532C416.741 289.063 417.936 288.828 419.258 288.828C421.52 288.828 423.301 289.394 424.602 290.524C425.904 291.655 426.554 293.255 426.554 295.324V305.084H423.066L422.682 302.524C422.213 303.378 421.552 304.082 420.698 304.636C419.866 305.191 418.789 305.468 417.466 305.468ZM418.394 302.268C419.568 302.268 420.474 301.884 421.114 301.116C421.776 300.348 422.192 299.399 422.362 298.268H418.874C417.786 298.268 417.008 298.471 416.538 298.876C416.069 299.26 415.834 299.74 415.834 300.316C415.834 300.935 416.069 301.415 416.538 301.756C417.008 302.098 417.626 302.268 418.394 302.268ZM429.823 305.084V289.212H433.439L433.759 291.9C434.25 290.962 434.954 290.215 435.871 289.66C436.81 289.106 437.908 288.828 439.167 288.828C441.13 288.828 442.655 289.447 443.743 290.684C444.831 291.922 445.375 293.735 445.375 296.124V305.084H441.279V296.508C441.279 295.143 441.002 294.098 440.447 293.372C439.892 292.647 439.028 292.284 437.855 292.284C436.703 292.284 435.754 292.69 435.007 293.5C434.282 294.311 433.919 295.442 433.919 296.892V305.084H429.823ZM450.86 286.748C450.113 286.748 449.495 286.524 449.004 286.076C448.535 285.628 448.3 285.063 448.3 284.38C448.3 283.698 448.535 283.143 449.004 282.716C449.495 282.268 450.113 282.044 450.86 282.044C451.607 282.044 452.215 282.268 452.684 282.716C453.175 283.143 453.42 283.698 453.42 284.38C453.42 285.063 453.175 285.628 452.684 286.076C452.215 286.524 451.607 286.748 450.86 286.748ZM448.812 305.084V289.212H452.908V305.084H448.812ZM456.543 305.084V289.212H460.159L460.479 291.9C460.97 290.962 461.674 290.215 462.591 289.66C463.53 289.106 464.628 288.828 465.887 288.828C467.85 288.828 469.375 289.447 470.463 290.684C471.551 291.922 472.095 293.735 472.095 296.124V305.084H467.999V296.508C467.999 295.143 467.722 294.098 467.167 293.372C466.612 292.647 465.748 292.284 464.575 292.284C463.423 292.284 462.474 292.69 461.727 293.5C461.002 294.311 460.639 295.442 460.639 296.892V305.084H456.543ZM482.092 300.348C481.324 300.348 480.609 300.263 479.948 300.092L478.764 301.276C479.126 301.468 479.617 301.628 480.236 301.756C480.854 301.884 481.857 302.012 483.244 302.14C485.356 302.332 486.892 302.834 487.852 303.644C488.812 304.455 489.292 305.575 489.292 307.004C489.292 307.943 489.036 308.828 488.524 309.66C488.012 310.514 487.222 311.196 486.156 311.708C485.089 312.242 483.724 312.508 482.06 312.508C479.798 312.508 477.974 312.082 476.588 311.228C475.201 310.396 474.508 309.138 474.508 307.452C474.508 306.023 475.201 304.786 476.588 303.74C476.161 303.548 475.788 303.346 475.468 303.132C475.169 302.919 474.902 302.695 474.668 302.46V301.724L477.452 298.78C476.214 297.692 475.596 296.295 475.596 294.588C475.596 293.522 475.852 292.551 476.364 291.676C476.897 290.802 477.644 290.108 478.604 289.596C479.564 289.084 480.726 288.828 482.092 288.828C482.988 288.828 483.82 288.956 484.588 289.212H490.604V291.708L487.884 291.9C488.31 292.711 488.524 293.607 488.524 294.588C488.524 295.655 488.268 296.626 487.756 297.5C487.244 298.375 486.497 299.068 485.516 299.58C484.556 300.092 483.414 300.348 482.092 300.348ZM482.092 297.212C482.924 297.212 483.606 296.988 484.14 296.54C484.694 296.092 484.972 295.452 484.972 294.62C484.972 293.788 484.694 293.148 484.14 292.7C483.606 292.252 482.924 292.028 482.092 292.028C481.217 292.028 480.513 292.252 479.98 292.7C479.446 293.148 479.18 293.788 479.18 294.62C479.18 295.452 479.446 296.092 479.98 296.54C480.513 296.988 481.217 297.212 482.092 297.212ZM478.252 307.036C478.252 307.826 478.614 308.412 479.34 308.796C480.086 309.202 480.993 309.404 482.06 309.404C483.084 309.404 483.916 309.191 484.556 308.764C485.196 308.359 485.516 307.804 485.516 307.1C485.516 306.524 485.302 306.044 484.876 305.66C484.47 305.276 483.649 305.042 482.412 304.956C481.537 304.892 480.726 304.796 479.98 304.668C479.361 305.01 478.913 305.383 478.636 305.788C478.38 306.194 478.252 306.61 478.252 307.036ZM493.687 305.084V292.636H491.511V289.212H493.687V287.356C493.687 285.436 494.167 284.071 495.127 283.26C496.108 282.45 497.431 282.044 499.095 282.044H500.855V285.532H499.735C499.031 285.532 498.529 285.671 498.231 285.948C497.932 286.226 497.783 286.695 497.783 287.356V289.212H501.207V292.636H497.783V305.084H493.687ZM509.763 305.468C507.779 305.468 506.243 304.85 505.155 303.612C504.088 302.375 503.555 300.562 503.555 298.172V289.212H507.619V297.788C507.619 299.154 507.896 300.199 508.451 300.924C509.005 301.65 509.88 302.012 511.075 302.012C512.205 302.012 513.133 301.607 513.859 300.796C514.605 299.986 514.979 298.855 514.979 297.404V289.212H519.075V305.084H515.459L515.139 302.396C514.648 303.335 513.933 304.082 512.995 304.636C512.077 305.191 511 305.468 509.763 305.468ZM522.639 305.084V282.044H526.735V305.084H522.639ZM365.995 340.084V317.684H370.091V340.084H365.995ZM373.697 340.084V324.212H377.313L377.633 326.9C378.124 325.962 378.828 325.215 379.745 324.66C380.684 324.106 381.782 323.828 383.041 323.828C385.004 323.828 386.529 324.447 387.617 325.684C388.705 326.922 389.249 328.735 389.249 331.124V340.084H385.153V331.508C385.153 330.143 384.876 329.098 384.321 328.372C383.766 327.647 382.902 327.284 381.729 327.284C380.577 327.284 379.628 327.69 378.881 328.5C378.156 329.311 377.793 330.442 377.793 331.892V340.084H373.697ZM399.598 340.084C397.934 340.084 396.6 339.679 395.598 338.868C394.595 338.058 394.094 336.618 394.094 334.548V327.636H391.374V324.212H394.094L394.574 319.956H398.19V324.212H402.478V327.636H398.19V334.58C398.19 335.348 398.35 335.882 398.67 336.18C399.011 336.458 399.587 336.596 400.398 336.596H402.382V340.084H399.598ZM412.66 340.468C411.06 340.468 409.641 340.127 408.404 339.444C407.167 338.762 406.196 337.802 405.492 336.564C404.788 335.327 404.436 333.898 404.436 332.276C404.436 330.634 404.777 329.172 405.46 327.892C406.164 326.612 407.124 325.62 408.34 324.916C409.577 324.191 411.028 323.828 412.692 323.828C414.249 323.828 415.625 324.17 416.82 324.852C418.015 325.535 418.943 326.474 419.604 327.668C420.287 328.842 420.628 330.154 420.628 331.604C420.628 331.839 420.617 332.084 420.596 332.34C420.596 332.596 420.585 332.863 420.564 333.14H408.5C408.585 334.378 409.012 335.348 409.78 336.052C410.569 336.756 411.519 337.108 412.628 337.108C413.46 337.108 414.153 336.927 414.708 336.564C415.284 336.18 415.711 335.69 415.988 335.092H420.148C419.849 336.095 419.348 337.012 418.644 337.844C417.961 338.655 417.108 339.295 416.084 339.764C415.081 340.234 413.94 340.468 412.66 340.468ZM412.692 327.156C411.689 327.156 410.804 327.444 410.036 328.02C409.268 328.575 408.777 329.428 408.564 330.58H416.468C416.404 329.535 416.02 328.703 415.316 328.084C414.612 327.466 413.737 327.156 412.692 327.156ZM423.433 340.084V324.212H427.081L427.465 327.188C428.041 326.164 428.82 325.354 429.801 324.756C430.804 324.138 431.977 323.828 433.321 323.828V328.148H432.169C431.273 328.148 430.473 328.287 429.769 328.564C429.065 328.842 428.51 329.322 428.105 330.004C427.721 330.687 427.529 331.636 427.529 332.852V340.084H423.433ZM440.953 340.468C439.587 340.468 438.467 340.255 437.593 339.828C436.718 339.38 436.067 338.794 435.641 338.068C435.214 337.343 435.001 336.543 435.001 335.668C435.001 334.196 435.577 333.002 436.729 332.084C437.881 331.167 439.609 330.708 441.913 330.708H445.945V330.324C445.945 329.236 445.635 328.436 445.017 327.924C444.398 327.412 443.63 327.156 442.713 327.156C441.881 327.156 441.155 327.359 440.537 327.764C439.918 328.148 439.534 328.724 439.385 329.492H435.385C435.491 328.34 435.875 327.338 436.537 326.484C437.219 325.631 438.094 324.98 439.161 324.532C440.227 324.063 441.422 323.828 442.745 323.828C445.006 323.828 446.787 324.394 448.089 325.524C449.39 326.655 450.041 328.255 450.041 330.324V340.084H446.553L446.169 337.524C445.699 338.378 445.038 339.082 444.185 339.636C443.353 340.191 442.275 340.468 440.953 340.468ZM441.881 337.268C443.054 337.268 443.961 336.884 444.601 336.116C445.262 335.348 445.678 334.399 445.849 333.268H442.361C441.273 333.268 440.494 333.471 440.025 333.876C439.555 334.26 439.321 334.74 439.321 335.316C439.321 335.935 439.555 336.415 440.025 336.756C440.494 337.098 441.113 337.268 441.881 337.268ZM461.085 340.468C459.464 340.468 458.035 340.116 456.797 339.412C455.56 338.708 454.579 337.727 453.853 336.468C453.149 335.21 452.797 333.77 452.797 332.148C452.797 330.527 453.149 329.087 453.853 327.828C454.579 326.57 455.56 325.588 456.797 324.884C458.035 324.18 459.464 323.828 461.085 323.828C463.112 323.828 464.819 324.362 466.205 325.428C467.592 326.474 468.477 327.924 468.861 329.78H464.541C464.328 329.012 463.901 328.415 463.261 327.988C462.643 327.54 461.907 327.316 461.053 327.316C459.923 327.316 458.963 327.743 458.173 328.596C457.384 329.45 456.989 330.634 456.989 332.148C456.989 333.663 457.384 334.847 458.173 335.7C458.963 336.554 459.923 336.98 461.053 336.98C461.907 336.98 462.643 336.767 463.261 336.34C463.901 335.914 464.328 335.306 464.541 334.516H468.861C468.477 336.308 467.592 337.748 466.205 338.836C464.819 339.924 463.112 340.468 461.085 340.468ZM478.71 340.084C477.046 340.084 475.713 339.679 474.71 338.868C473.707 338.058 473.206 336.618 473.206 334.548V327.636H470.486V324.212H473.206L473.686 319.956H477.302V324.212H481.59V327.636H477.302V334.58C477.302 335.348 477.462 335.882 477.782 336.18C478.123 336.458 478.699 336.596 479.51 336.596H481.494V340.084H478.71ZM486.675 321.748C485.928 321.748 485.309 321.524 484.819 321.076C484.349 320.628 484.115 320.063 484.115 319.38C484.115 318.698 484.349 318.143 484.819 317.716C485.309 317.268 485.928 317.044 486.675 317.044C487.421 317.044 488.029 317.268 488.499 317.716C488.989 318.143 489.235 318.698 489.235 319.38C489.235 320.063 488.989 320.628 488.499 321.076C488.029 321.524 487.421 321.748 486.675 321.748ZM484.627 340.084V324.212H488.723V340.084H484.627ZM499.974 340.468C498.438 340.468 497.051 340.116 495.814 339.412C494.598 338.708 493.627 337.738 492.902 336.5C492.198 335.242 491.846 333.791 491.846 332.148C491.846 330.506 492.209 329.066 492.934 327.828C493.659 326.57 494.63 325.588 495.846 324.884C497.083 324.18 498.47 323.828 500.006 323.828C501.521 323.828 502.886 324.18 504.102 324.884C505.339 325.588 506.31 326.57 507.014 327.828C507.739 329.066 508.102 330.506 508.102 332.148C508.102 333.791 507.739 335.242 507.014 336.5C506.31 337.738 505.339 338.708 504.102 339.412C502.865 340.116 501.489 340.468 499.974 340.468ZM499.974 336.916C501.041 336.916 501.969 336.522 502.758 335.732C503.547 334.922 503.942 333.727 503.942 332.148C503.942 330.57 503.547 329.386 502.758 328.596C501.969 327.786 501.051 327.38 500.006 327.38C498.918 327.38 497.979 327.786 497.19 328.596C496.422 329.386 496.038 330.57 496.038 332.148C496.038 333.727 496.422 334.922 497.19 335.732C497.979 336.522 498.907 336.916 499.974 336.916ZM511.124 340.084V324.212H514.74L515.06 326.9C515.551 325.962 516.255 325.215 517.172 324.66C518.111 324.106 519.21 323.828 520.468 323.828C522.431 323.828 523.956 324.447 525.044 325.684C526.132 326.922 526.676 328.735 526.676 331.124V340.084H522.58V331.508C522.58 330.143 522.303 329.098 521.748 328.372C521.194 327.647 520.33 327.284 519.156 327.284C518.004 327.284 517.055 327.69 516.308 328.5C515.583 329.311 515.22 330.442 515.22 331.892V340.084H511.124ZM536.513 340.468C535.105 340.468 533.868 340.244 532.801 339.796C531.734 339.327 530.881 338.687 530.241 337.876C529.601 337.066 529.217 336.127 529.089 335.06H533.217C533.345 335.679 533.686 336.212 534.241 336.66C534.817 337.087 535.553 337.3 536.449 337.3C537.345 337.3 537.996 337.119 538.401 336.756C538.828 336.394 539.041 335.978 539.041 335.508C539.041 334.826 538.742 334.367 538.145 334.132C537.548 333.876 536.716 333.631 535.649 333.396C534.966 333.247 534.273 333.066 533.569 332.852C532.865 332.639 532.214 332.372 531.617 332.052C531.041 331.711 530.572 331.284 530.209 330.772C529.846 330.239 529.665 329.588 529.665 328.82C529.665 327.412 530.22 326.228 531.329 325.268C532.46 324.308 534.038 323.828 536.065 323.828C537.942 323.828 539.436 324.266 540.545 325.14C541.676 326.015 542.348 327.22 542.561 328.756H538.689C538.454 327.583 537.569 326.996 536.033 326.996C535.265 326.996 534.668 327.146 534.241 327.444C533.836 327.743 533.633 328.116 533.633 328.564C533.633 329.034 533.942 329.407 534.561 329.684C535.18 329.962 536.001 330.218 537.025 330.452C538.134 330.708 539.148 330.996 540.065 331.316C541.004 331.615 541.75 332.074 542.305 332.692C542.86 333.29 543.137 334.154 543.137 335.284C543.158 336.266 542.902 337.151 542.369 337.94C541.836 338.73 541.068 339.348 540.065 339.796C539.062 340.244 537.878 340.468 536.513 340.468Z" fill="white"/>
<path d="M363.313 595.709C363.483 591.874 390.116 479.62 390.116 479.62C405.145 465.279 433.92 466.676 447.36 464.765C479.34 460.216 478.731 450.795 478.731 450.795C478.731 450.795 496.617 452.227 504.453 440.857C508.507 434.975 534.731 365.343 534.731 365.343C534.731 365.343 529.81 359.473 517.608 371.196C505.405 382.919 497.046 411.425 497.046 411.425C497.046 411.425 505.896 372.185 506.058 365.244C506.22 358.304 492.53 360.354 488.18 371.688C483.83 383.024 469.327 419.774 469.327 419.774C465.475 425.904 460.762 430.044 454.567 430.768C454.567 430.768 459.696 373.962 459.679 367.754C459.661 361.544 447.793 362.492 442.711 373.648C437.629 384.804 430.735 415.627 430.735 415.627C430.735 415.627 374.454 412.831 364.779 419.034C346.152 430.979 283.966 595.709 283.966 595.709H363.313Z" fill="#FDAD6A"/>
<path d="M492.081 444.823C492.821 445.44 500.843 452.523 511.004 448.331C521.166 444.139 533.403 437.162 546.95 431.024C560.494 424.889 561.68 424.371 553.333 419.781C544.987 415.191 531.665 420.76 522.627 423.757C513.59 426.754 505.06 429.294 505.06 429.294L492.081 444.823Z" fill="#FDAD6A"/>
<path d="M478.945 451.036C488.08 443.216 497.986 415.907 506.058 365.244" stroke="#E97F3F" stroke-width="0.75" stroke-linecap="round" stroke-linejoin="round"/>
<path d="M436.518 446.915C442.813 446.309 447.008 445.082 450.137 442.471C455.734 437.803 459.677 367.754 459.677 367.754" stroke="#E97F3F" stroke-width="0.75" stroke-linecap="round" stroke-linejoin="round"/>
<path d="M493.928 448.627C499.778 446.574 505.218 438.955 508.149 433.492C511.08 428.03 532.73 372.326 534.731 365.343" stroke="#E97F3F" stroke-width="0.75" stroke-linecap="round" stroke-linejoin="round"/>
</g>
<defs>
<clipPath id="clip0_1913_2158">
<rect width="1105.15" height="599.322" fill="white"/>
</clipPath>
</defs>
</svg>
